<?xml version="1.0" standalone="no"?>
<!DOCTYPE svg PUBLIC "-//W3C//DTD SVG 1.1//EN" "http://www.w3.org/Graphics/SVG/1.1/DTD/svg11.dtd" >
<svg xmlns="http://www.w3.org/2000/svg">
<metadata>Generated by IcoMoon</metadata>
<defs>
<font id="icomoon" horiz-adv-x="1024">
<font-face units-per-em="1024" ascent="1024" descent="0" />
<missing-glyph horiz-adv-x="1024" />
<glyph unicode="&#x20;" horiz-adv-x="512" d="" />
<glyph unicode="&#xe900;" glyph-name="heart-filled" horiz-adv-x="976" d="M59.388 502.101c-105.569 145.416-70.379 363.544 105.569 436.253s281.518-72.709 316.706-145.418c35.191 72.709 175.95 218.127 351.897 145.418 175.95-72.709 175.95-290.838 70.379-436.253-105.568-145.418-422.276-436.255-422.276-436.255s-316.706 290.837-422.275 436.255z" />
<glyph unicode="&#xe901;" glyph-name="heart" horiz-adv-x="976" d="M610.313 883.575c-55.475-32.613-94.8-81.577-109.882-112.614-3.449-7.096-10.653-11.601-18.551-11.601s-15.102 4.506-18.551 11.601c-15.972 32.868-47.692 81.459-94.241 113.386-45.412 31.146-105.522 47.036-182.706 15.273-153.661-63.232-187.247-254.727-92.306-384.961 49.394-67.754 149.276-170.636 237.929-257.497 44.106-43.215 85.074-82.118 115.018-110.225 14.513-13.621 26.432-24.7 34.857-32.498 8.423 7.796 20.342 18.875 34.857 32.498 29.945 28.104 70.911 67.011 115.021 110.225 88.649 86.861 188.531 189.741 237.927 257.497 47.902 65.708 71.397 147.372 63.58 219.741-7.724 71.533-45.791 133.786-122.179 165.222-77.032 31.701-146.062 16.117-200.772-16.045zM481.88 86.416c-13.926-15.185-13.929-15.183-13.931-15.18l-0.89 0.815-2.579 2.367c-2.261 2.080-5.582 5.142-9.846 9.085-8.525 7.885-20.804 19.298-35.855 33.424-30.095 28.245-71.285 67.362-115.659 110.838-88.305 86.524-190.66 191.701-242.385 262.656-107.296 147.177-73.47 371.805 109.934 447.276 91.346 37.592 166.064 18.804 221.769-19.403 40.189-27.562 70.136-64.894 90.216-97.23 23.45 33.18 60.235 70.663 106.74 98.001 63.259 37.191 145.908 56.285 237.409 18.631 92.145-37.918 138.345-114.372 147.47-198.883 9.038-83.679-18.025-175.396-71.243-248.393-51.724-70.953-154.081-176.131-242.386-262.656-44.371-43.476-85.562-82.593-115.656-110.838-15.052-14.123-27.332-25.536-35.858-33.424-4.26-3.943-7.585-7.005-9.846-9.085l-3.458-3.17c-0.003-0.003-0.014-0.017-13.942 15.168zM481.88 86.416l-13.931-15.18c7.882-7.208 19.994-7.197 27.873 0.011l-13.942 15.168z" />
<glyph unicode="&#xe902;" glyph-name="profile" horiz-adv-x="992" d="M496.013 962.204c-250.064 0-451.569-202.242-451.569-450.203 0-99.756 32.612-192.111 87.879-266.874 54.447 100.812 147.87 177.055 261.423 206.038-53.433 33.895-89.149 93.611-89.149 162.188 0 106.637 86.369 191.853 191.415 191.853 105.043 0 191.413-85.215 191.413-191.853 0-68.539-35.677-128.228-89.057-162.129 113.965-28.845 208.826-104.737 261.706-205.592 55.039 74.677 87.507 166.84 87.507 266.369 0 247.96-201.506 450.203-451.57 450.203zM828.903 207.81c-56.93 123.442-184.076 210.313-332.89 210.313-148.451 0-272.754-86.562-332.689-210.53 82.433-89.544 200.806-145.795 332.689-145.795 131.988 0 250.448 56.344 332.89 146.012zM0.026 512.001c0 274.605 222.73 495.985 495.985 495.985s495.985-221.38 495.985-495.985-222.732-495.985-495.985-495.985c-273.256 0-495.985 221.38-495.985 495.985zM496.013 759.422c-81.857 0-146.998-66.079-146.998-146.069 0-79.993 65.141-146.071 146.998-146.071 81.854 0 146.998 66.077 146.998 146.071 0 79.99-65.144 146.069-146.998 146.069z" />
<glyph unicode="&#xe903;" glyph-name="statistic" horiz-adv-x="992" d="M495.99 962.197c-247.113 0-448.749-200.849-448.749-450.203s201.636-450.203 448.749-450.203c247.112 0 448.749 200.85 448.749 450.203s-201.637 450.203-448.749 450.203zM0.004 511.994c0 273.212 221.336 495.985 495.985 495.985s495.985-222.774 495.985-495.985c0-273.211-221.336-495.985-495.985-495.985s-495.985 222.775-495.985 495.985zM495.99 805.226c-13.045 0-23.618-10.249-23.618-22.892v-473.093c0-12.644 10.573-22.893 23.618-22.893s23.618 10.249 23.618 22.893v473.093c0 12.642-10.573 22.892-23.618 22.892zM293.546 670.055c-13.044 0-23.618-10.249-23.618-22.89v-337.924c0-12.644 10.574-22.893 23.618-22.893s23.619 10.249 23.619 22.893v337.924c0 12.641-10.573 22.89-23.619 22.89zM698.432 602.471c-13.045 0-23.618-10.249-23.618-22.893v-270.337c0-12.644 10.573-22.893 23.618-22.893s23.618 10.249 23.618 22.893v270.337c0 12.644-10.573 22.893-23.618 22.893z" />
<glyph unicode="&#xe904;" glyph-name="globe" horiz-adv-x="978" d="M110.171 814.515c87.761 113.221 206.81 186.898 378.83 186.901 172.023 0.003 291.081-73.681 378.841-186.902 64.575-83.308 103.048-188.409 103.048-302.507s-38.472-219.199-103.048-302.508c-88.082-113.637-224.937-186.907-378.829-186.907-153.895 0-290.758 73.27-378.842 186.907-64.574 83.308-103.046 188.41-103.046 302.508 0 114.101 38.472 219.2 103.046 302.508zM162.88 807.092c5.258-2.762 11.459-5.873 18.581-9.214 23.925-11.222 58.21-25.015 102.015-36.851 35.764 72.118 81.35 129.259 118.895 169.079 7.59 8.051 14.866 15.408 21.682 22.053-111.866-14.581-195.064-67.415-261.173-145.068zM466.058 929.335c-8.969-8.392-19.152-18.403-30.048-29.961-33.804-35.854-74.18-86.268-106.716-149.135 39.831-8.041 85.561-13.9 136.77-15.27l-0.006 194.366zM466.067 689.777c-59.049 1.497-111.399 8.662-156.452 18.393-21.512-51.372-36.778-109.493-39.725-173.574h196.177v155.181zM511.96 534.595h196.165c-2.949 64.078-18.215 122.202-39.728 173.571-45.050-9.728-97.391-16.893-156.437-18.39v-155.181zM466.067 489.419h-196.177c2.946-64.078 18.212-122.202 39.725-173.571 45.053 9.731 97.403 16.893 156.452 18.39v155.181zM511.96 334.238c59.046-1.497 111.387-8.662 156.44-18.393 21.513 51.372 36.777 109.496 39.725 173.574h-196.165v-155.181zM466.067 289.046c-51.212-1.37-96.943-7.228-136.773-15.27 32.536-62.868 72.915-113.282 106.719-149.137 10.9-11.559 21.082-21.57 30.054-29.964v194.37zM423.071 72.817c-6.53 6.391-13.469 13.426-20.694 21.088-37.548 39.822-83.137 96.967-118.901 169.083-43.805-11.836-78.091-25.63-102.015-36.852-7.055-3.307-13.207-6.391-18.433-9.135 66.147-75.83 157.258-128.298 260.043-144.185zM134.606 253.206c7.118 3.897 16.177 8.587 27.114 13.716 24.847 11.653 59.413 25.606 102.953 37.801-22.163 54.606-37.846 116.48-40.72 184.696h-170.381c4.32-87.956 33.732-169.093 81.034-236.213zM53.572 534.595h170.381c2.874 68.219 18.557 130.090 40.72 184.696-43.54 12.197-78.106 26.149-102.953 37.803-10.937 5.13-19.996 9.817-27.114 13.716-47.302-67.123-76.713-148.257-81.034-236.216zM554.95 72.817c102.786 15.887 193.891 68.352 260.036 144.185-5.225 2.741-11.378 5.825-18.432 9.135-23.925 11.222-58.211 25.016-102.014 36.852-35.765-72.12-81.351-129.262-118.895-169.083-7.225-7.662-14.164-14.697-20.694-21.088zM648.722 273.777c-39.828 8.041-85.552 13.899-136.761 15.27v-194.367c8.969 8.391 19.149 18.402 30.045 29.958 33.804 35.855 74.18 86.272 106.716 149.14zM713.342 304.722c43.541-12.195 78.107-26.148 102.954-37.801 10.936-5.132 19.995-9.818 27.112-13.719 47.303 67.123 76.716 148.257 81.035 236.216h-170.382c-2.873-68.216-18.555-130.090-40.719-184.696zM754.061 534.595h170.382c-4.319 87.959-33.732 169.093-81.035 236.215-7.117-3.9-16.176-8.587-27.115-13.717-24.847-11.654-59.413-25.606-102.954-37.802 22.164-54.606 37.849-116.48 40.722-184.696zM694.537 761.025c43.806 11.836 78.092 25.63 102.018 36.852 7.12 3.34 13.324 6.452 18.58 9.214-66.108 77.654-149.314 130.493-261.186 145.071 6.819-6.646 14.098-14.005 21.688-22.057 37.548-39.82 83.134-96.962 118.901-169.080zM511.951 929.33l0.009-194.361c51.206 1.37 96.931 7.228 136.758 15.268-32.539 62.866-72.915 113.281-106.719 149.135-10.897 11.556-21.079 21.566-30.048 29.957z" />
<glyph unicode="&#xe905;" glyph-name="flame" horiz-adv-x="979" d="M518.595 987.039l-6.742 22.328 48.589 14.617-20.677-46.748c-0.153-0.363-0.399-0.96-0.725-1.777-0.649-1.632-1.608-4.133-2.733-7.374-2.258-6.499-5.169-15.884-7.662-27.162-5.053-22.841-8.079-51.992-1.816-80.301l0.205-0.939 0.13-0.952c5.977-43.895 28.97-72.011 59.383-102.985 3.766-3.834 7.672-7.73 11.667-11.719 27.604-27.54 59.619-59.474 79.841-105.444 1.71-3.884 3.374-7.653 4.994-11.326 18.929-42.851 31.968-72.366 40.398-116.536 14.765 28.479 17.464 58.791 19.022 83.427l5.526 87.258 38.669-78.417c42.944-87.086 62.272-159.247 67.797-264.702 7.737-147.729-92.267-304.886-242.453-337.697-12.961-2.83-23.288 5.249-26.924 14.165-3.574 8.769-1.965 21.305 8.611 28.485 57.629 39.129 76.035 89.677 76.035 133.16 0 42.967-4.288 79.527-12.038 108.133-10.265-15.414-23.061-29.641-36.178-41.567l-33.578-30.531-5.277 45.075c-7.158 61.133-15.172 90.943-24.259 112.285-4.586 10.775-9.665 19.902-15.863 30.596-0.843 1.459-1.71 2.948-2.597 4.472-5.569 9.562-11.944 20.512-18.841 34.042-1.459 2.864-2.929 5.713-4.404 8.564-13.133 25.422-26.423 51.145-32.518 90.196-40.576-44.213-44.926-95.222-48.464-136.702l-0.012-0.15c-3.504-41.057-18.987-74.415-39.36-108.818l-13.432-22.679-20.875 16.093c-17.136 13.21-28.1 23.602-40.064 37.077-7.939-35.124-12.669-79.22-12.669-124.176 0-22.305 9.745-53.937 26.229-84.876 16.462-30.898 37.431-56.947 56.217-69.874 12.149-8.359 11.879-22.741 7.178-31.076-4.51-7.989-15.451-15.076-28.157-10.794-145.92 49.167-238.497 172.164-246.2 326.912-3.849 77.217 17.244 159.627 31.808 210.843 13.382 47.059 34.846 89.214 50.057 119.089 2.163 4.251 4.199 8.25 6.068 11.978l26.134 52.165 17.026-55.803c11.397-37.353 18.667-56.245 26.626-69.738 4.254-7.211 8.869-13.182 15.193-19.942 11.456 16.578 18.281 28.553 23.077 39.493 6.67 15.213 9.877 29.368 15.338 54.056 4.726 21.367 4.823 40.868 4.391 63.86-0.036 1.904-0.075 3.832-0.115 5.784-0.437 21.372-0.933 45.693 2.621 74.258 9.376 75.356 52.361 124.304 91.759 153.816 19.675 14.738 38.715 24.856 52.855 31.308 7.093 3.236 13.014 5.578 17.249 7.138 2.121 0.781 3.824 1.367 5.047 1.773 0.609 0.203 1.101 0.361 1.465 0.477l0.68 0.212c0.012 0.003 0.022 0.006 6.742-22.328zM462.518 931.127c-32.748-24.531-66.090-63.22-73.433-122.241-3.122-25.090-2.698-46.26-2.266-67.828 0.037-1.856 0.074-3.715 0.109-5.58 0.437-23.289 0.534-47.604-5.485-74.811l-0.271-1.226c-5.153-23.301-9.224-41.714-17.891-61.482-8.823-20.126-21.943-40.712-44.075-70.36l-15.63-20.937-19.035 17.9c-17.649 16.594-31.035 29.561-42.427 48.875-4.545 7.703-8.674 16.245-12.752 26.218-10.371-22.069-20.637-46.661-28.118-72.969-14.511-51.030-33.518-126.916-30.086-195.761 4.929-99.044 48.918-182.383 121.883-236.914-17.575 33.665-30.384 72.026-30.384 104.299 0 67.275 9.918 136.301 27.843 181.028l14.716 36.719 25.62-31.408c17.752-21.761 27.551-33.775 38.784-44.565 10.957 21.821 17.67 42.006 19.605 64.694 0.052 0.6 0.102 1.204 0.154 1.813 4.393 51.633 11.579 136.080 101.445 197.988l36.554 25.179v-44.385c0-56.885 13.819-83.67 30.802-116.573 1.474-2.852 2.966-5.75 4.481-8.716 6.263-12.286 11.96-22.076 17.523-31.638 0.908-1.558 1.81-3.11 2.711-4.665 6.384-11.018 12.66-22.181 18.422-35.712 7.961-18.699 14.544-40.958 20.275-73.42 7.242 11.836 11.167 22.63 11.864 31.541l5.078 64.843 37.285-53.294c28.665-40.976 40.556-107.15 40.556-181.341 0-27.293-5.6-56.214-18.932-84.217 71.208 56.319 115.273 151.298 110.435 243.666-3.651 69.704-13.499 122.985-32.92 176.683-9.251-25.898-24.952-52.871-52.149-76.287l-34.359-29.589-4.086 45.159c-6.487 71.7-18.844 99.678-43.986 156.607-1.62 3.666-3.293 7.451-5.019 11.375-16.45 37.394-41.872 62.878-69.682 90.756-4.092 4.102-8.237 8.259-12.414 12.513-31.716 32.298-63.864 69.393-72.188 128.423-7.311 33.907-4.413 67.058 0.572 92.54-6.157-3.733-12.61-8.019-19.13-12.901z" />
<glyph unicode="&#xe906;" glyph-name="message" horiz-adv-x="989" d="M0.021 912.797c0 26.925 21.827 48.752 48.752 48.752h891.461c26.925 0 48.754-21.827 48.754-48.752v-823.827c0-22.454-26.209-34.708-43.438-20.306l-243.36 203.394h-653.417c-26.925 0-48.752 21.828-48.752 48.754v591.985zM48.772 919.761c-3.846 0-6.964-3.118-6.964-6.965v-591.985c0-3.846 3.117-6.965 6.964-6.965h658.977c6.203 0 12.211-2.18 16.97-6.159v0l222.478-185.944v791.052c0 3.846-3.118 6.965-6.965 6.965h-891.461zM215.288 724.754c0-11.539 9.354-20.894 20.893-20.894h516.644c11.536 0 20.893 9.355 20.893 20.894s-9.356 20.893-20.893 20.893h-516.644c-11.539 0-20.893-9.354-20.893-20.893zM215.288 508.855c0-11.539 9.354-20.895 20.893-20.895h301.375c11.539 0 20.893 9.356 20.893 20.895s-9.353 20.893-20.893 20.893h-301.375c-11.539 0-20.893-9.353-20.893-20.893z" />
<glyph unicode="&#xe907;" glyph-name="book" horiz-adv-x="981" d="M838.868 878.321c-34.414 1.319-115.158 0.78-184.097-27.159-37.669-15.266-75.354-41.426-104.109-64.374-14.26-11.379-26.079-21.772-34.315-29.302-2.869-2.622-5.295-4.892-7.234-6.731v-580.628c5.079 4.379 10.677 9.065 16.724 13.935 29.436 23.695 70.384 52.391 114.941 70.447 73.045 29.601 159.632 30.932 198.089 29.777v594.033zM838.868 895.308c-0.003 0.122-0.003 0.215 0 0.278v-0.278zM471.862 170.122v580.634c-1.942 1.838-4.368 4.106-7.234 6.725-8.235 7.527-20.054 17.916-34.313 29.292-28.754 22.942-66.439 49.095-104.111 64.362-68.94 27.938-149.684 28.478-184.096 27.159v-594.038c9.045 0.271 20.736 0.405 34.264 0.070 9.49-0.235 19.902-0.7 30.955-1.515 39.701-2.921 88.591-10.383 132.87-28.326 17.886-7.247 35.124-16.181 51.198-25.749 9.835-5.857 19.269-11.973 28.193-18.124 20.456-14.106 38.338-28.484 52.276-40.489zM142.109 895.28v0.336c0-0.014 0-0.033 0-0.055 0.001-0.063 0.001-0.157 0-0.28zM490.486 784.315c0.238 0.22 0.481 0.442 0.727 0.666 8.717 7.971 21.176 18.925 36.213 30.924 29.832 23.807 70.792 52.533 113.354 69.783 97.497 39.511 213.39 29.19 218.265 28.742 5.819-0.534 11.73-3.88 14.926-9.991 2.171-4.15 2.153-7.995 2.151-8.734v-82.377c47.887-3.813 85.169-8.334 88.298-8.718 11.523-1.411 16.56-11.424 16.56-18.733v-658.067c0-11.163-10.704-21.974-24.060-18.149-4.985 1.428-97.637 27.41-231.579 27.41-69.188 0-126.835-6.934-167.088-13.841-20.119-3.452-35.871-6.895-46.523-9.455-5.326-1.279-9.374-2.335-12.052-3.062-1.34-0.363-2.337-0.644-2.98-0.828l-0.845-0.243-5.362-1.609-6.208 1.853c-0.644 0.181-1.639 0.461-2.98 0.825-2.677 0.725-6.728 1.783-12.052 3.059-10.651 2.558-26.404 5.995-46.523 9.445-40.255 6.902-97.902 13.829-167.090 13.829-133.943 0-226.594-25.982-231.58-27.41-13.354-3.822-24.059 6.983-24.059 18.149v658.068c0 7.307 5.036 17.321 16.559 18.732 3.131 0.383 40.413 4.905 88.301 8.718v82.314c0 0.017 0 0.039 0 0.063-0.003 0.738-0.021 4.582 2.149 8.731 3.196 6.113 9.107 9.459 14.926 9.994 4.876 0.448 120.769 10.769 218.267-28.742 42.562-17.249 83.521-45.967 113.352-69.767 15.035-11.995 27.492-22.946 36.213-30.914 0.243-0.223 0.486-0.444 0.725-0.664zM104.856 775.929c-28.27-2.289-52.538-4.797-67.606-6.461v-618.166c37.481 8.481 116.502 22.995 218.387 22.995 69.195 0 127.324-6.688 169.025-13.627-8.081 6.306-16.876 12.828-26.22 19.271-8.322 5.739-17.061 11.399-26.104 16.784-14.812 8.822-30.346 16.838-46.132 23.234-39.242 15.904-83.835 22.923-121.611 25.702-10.389 0.763-20.193 1.202-29.143 1.423-28.483 0.705-48.137-0.795-50.206-0.964-11.403-0.919-20.389 8.215-20.389 18.815v510.994zM556.314 160.685c41.701 6.944 99.829 13.64 169.027 13.64 101.883 0 180.906-14.514 218.387-22.997v618.168c-15.067 1.664-39.336 4.172-67.606 6.461v-510.994c0-2.683-0.594-7.217-3.912-11.534-3.986-5.188-10.234-7.788-16.438-7.285-5.56 0.452-115.165 8.625-200.999-26.158-36.482-14.782-71.238-38.062-98.458-59.301z" />
<glyph unicode="&#xe908;" glyph-name="newspaper" horiz-adv-x="975" d="M237.694 941.265v-783.356c0-28.523-10.049-54.7-26.801-75.183h625.839c52.238 0 94.585 42.347 94.585 94.585v763.955h-693.623zM118.857 82.726c41.522 0 75.182 33.66 75.182 75.183v688.453h-150.366v-688.453c0-41.522 33.66-75.183 75.182-75.183zM194.040 890.018v70.165c0 13.662 11.075 24.738 24.738 24.738h731.457c13.661 0 24.737-11.075 24.737-24.738v-782.871c0-76.347-61.891-138.239-138.239-138.239h-717.875c-65.632 0-118.838 53.204-118.838 118.837v707.37c0 13.662 11.075 24.738 24.738 24.738h169.283zM465.667 777.433c0-12.054 9.775-21.828 21.829-21.828h271.627c12.056 0 21.829 9.772 21.829 21.828s-9.772 21.828-21.829 21.828h-271.627c-12.054 0-21.829-9.772-21.829-21.828zM349.257 604.137c0-12.054 9.772-21.826 21.826-21.826h388.040c12.056 0 21.829 9.772 21.829 21.826 0 12.056-9.772 21.829-21.829 21.829h-388.040c-12.054 0-21.826-9.772-21.826-21.829zM349.257 418.458c0-12.054 9.772-21.826 21.826-21.826h388.040c12.056 0 21.829 9.772 21.829 21.826 0 12.056-9.772 21.829-21.829 21.829h-388.040c-12.054 0-21.826-9.772-21.826-21.829zM349.257 245.182c0-12.054 9.772-21.826 21.826-21.826h388.040c12.056 0 21.829 9.772 21.829 21.826 0 12.056-9.772 21.829-21.829 21.829h-388.040c-12.054 0-21.826-9.772-21.826-21.829z" />
<glyph unicode="&#xe909;" glyph-name="filter" horiz-adv-x="991" d="M68.287 952.645l87.886-88.841h446.86l53.194 88.841h-587.94zM708.816 952.645l-53.197-88.841h63.52l70.542 88.841h-80.864zM847.293 952.645l-70.542-88.841h58.082l87.887 88.841h-75.427zM790.2 818.685h-589.394l228.785-231.27c5.292-5.35 8.261-12.573 8.261-20.098v-479.151l115.302 87.42v391.732c0 7.526 2.969 14.746 8.261 20.098l228.786 231.27zM411.346 68.073c-0.012-0.009-0.024-0.019-0.033-0.027zM8.336 949.092c-17.851 18.046-5.068 48.672 20.315 48.672h933.705c25.384 0 38.166-30.626 20.314-48.671l-384.397-388.573v-393.153c0-8.945-4.187-17.369-11.309-22.77l-148.392-112.503c-18.818-14.269-45.838-0.844-45.838 22.77v505.656l-384.397 388.573zM397.515 555.682c-0.006 0.006 0.006-0.006 0 0z" />
<glyph unicode="&#xe90a;" glyph-name="search" horiz-adv-x="992" d="M359.34 962.207c-173.158 0-313.53-140.373-313.53-313.53s140.373-313.531 313.53-313.531c86.587 0 164.937 35.070 221.7 91.832s91.832 135.113 91.832 221.7c0 173.159-140.374 313.53-313.531 313.53zM0.025 648.676c0 198.444 160.87 359.314 359.314 359.314s359.313-160.87 359.313-359.314c0-90.976-33.836-174.085-89.566-237.372l356.204-356.207c8.94-8.937 8.94-23.432 0-32.372s-23.435-8.94-32.372 0l-356.207 356.204c-63.287-55.73-146.397-89.566-237.372-89.566-198.443 0-359.314 160.87-359.314 359.313z" />
<glyph unicode="&#xe90b;" glyph-name="eye" horiz-adv-x="991" d="M495.496 679.502c-91.297 0-164.635-75.369-164.635-167.499s73.338-167.501 164.635-167.501c91.297 0 164.635 75.371 164.635 167.501s-73.338 167.499-164.635 167.499zM371.473 512.004c0 70.461 55.903 126.894 124.024 126.894s124.024-56.436 124.024-126.894c0-70.461-55.903-126.894-124.024-126.894s-124.024 56.436-124.024 126.894zM981.113 523.784l-0.060 0.079-0.65 0.91c-0.448 0.609-1.081 1.488-1.921 2.617-1.673 2.263-4.146 5.543-7.344 9.696-6.415 8.282-15.823 20.053-27.914 34.141-24.146 28.15-59.125 65.706-102.462 103.316-86.032 74.678-208.002 152.17-345.271 152.17-137.28 0-259.238-77.491-345.271-152.17-43.336-37.61-78.309-75.163-102.462-103.316-12.092-14.089-21.501-25.859-27.914-34.141-3.207-4.151-5.674-7.417-7.344-9.696-0.845-1.128-1.476-2.019-1.921-2.617l-0.513-0.711-0.199-0.279c-0.008-0.009-0.014-0.019 16.544-11.784-16.544-11.764-16.544-11.774-16.544-11.784l0.019-0.019 0.69-0.963c0.448-0.609 1.081-1.488 1.921-2.617 1.673-2.263 4.145-5.543 7.344-9.696 6.416-8.282 15.824-20.053 27.914-34.144 24.145-28.15 59.124-65.704 102.462-103.313 86.031-74.679 207.999-152.172 345.271-152.172s259.238 77.492 345.271 152.172c43.335 37.609 78.309 75.163 102.462 103.313 12.092 14.092 21.501 25.862 27.914 34.144 3.207 4.151 5.674 7.417 7.344 9.696 0.845 1.128 1.476 2.019 1.921 2.617l0.69 0.965 0.019 0.019c0.009 0.009 0.016 0.019-16.544 11.784 16.544 11.767 16.544 11.778 16.544 11.784zM78.59 479.218c-11.587 13.515-20.562 24.742-26.615 32.556l-0.178 0.217 0.178 0.218c6.040 7.81 15.014 19.045 26.615 32.556 23.21 27.048 56.79 63.092 98.254 99.082 83.554 72.526 196.133 142.234 318.65 142.234s235.093-69.7 318.651-142.234c41.464-35.987 75.043-72.036 98.254-99.082 11.587-13.515 20.56-24.742 26.615-32.556l0.178-0.218-0.178-0.217c-6.040-7.81-15.014-19.045-26.615-32.556-23.212-27.048-56.79-63.095-98.254-99.083-83.557-72.526-196.133-142.234-318.651-142.234s-235.096 69.701-318.65 142.234c-41.465 35.986-75.043 72.037-98.254 99.083zM964.572 511.997l16.544 11.784c5.014-7.044 5.014-16.505 0-23.547l-16.544 11.784zM9.879 523.784l16.544-11.784-16.544-11.784c-5.014 7.044-5.014 16.505 0 23.547z" />
<glyph unicode="&#xe90c;" glyph-name="mail" horiz-adv-x="979" d="M87.907 807.559l377.812-278.765c14.117-10.415 33.449-10.415 47.564 0l377.813 278.765c-8.118 4.383-16.877 6.664-25.803 6.664h-751.585c-8.926 0-17.684-2.28-25.802-6.664zM922.761 771.823l-380.938-281.069c-31.054-22.914-73.588-22.914-104.642 0l-380.936 281.069c-5.302-11.794-8.422-25.496-8.422-40.312v-439.018c0-49.812 33.312-82.711 65.886-82.711h751.585c32.575 0 65.886 32.898 65.886 82.711v439.018c0 14.817-3.118 28.519-8.42 40.312zM31.282 821.255c20.094 24.183 49.165 40.382 82.428 40.382h751.585c33.263 0 62.336-16.199 82.428-40.382 19.658-23.658 31.268-55.419 31.268-89.744v-439.018c0-67.733-47.089-130.125-113.697-130.125h-751.585c-66.606 0-113.696 62.393-113.696 130.125v439.018c0 34.324 11.61 66.086 31.269 89.744z" />
<glyph unicode="&#xe90d;" glyph-name="sun" horiz-adv-x="992" d="M496.002 1008.484c-17.501 0-31.691-14.188-31.691-31.69v-154.932c0-17.502 14.19-31.691 31.691-31.691s31.691 14.188 31.691 31.691v154.932c0 17.502-14.19 31.69-31.691 31.69zM141.597 866.404c-12.376-12.376-12.376-32.441 0-44.817l110.666-110.665c12.376-12.375 32.442-12.375 44.816 0 12.378 12.376 12.378 32.441 0 44.817l-110.665 110.665c-12.376 12.376-32.441 12.376-44.817 0zM850.406 866.404c-12.375 12.376-32.439 12.376-44.817 0l-110.663-110.665c-12.378-12.376-12.378-32.441 0-44.817 12.375-12.375 32.439-12.375 44.817 0l110.663 110.665c12.378 12.376 12.378 32.441 0 44.817zM496.002 657.373c-80.288 0-145.374-65.086-145.374-145.374s65.086-145.374 145.374-145.374c80.288 0 145.374 65.086 145.374 145.374s-65.086 145.374-145.374 145.374zM287.246 511.999c0 115.293 93.463 208.755 208.756 208.755s208.756-93.462 208.756-208.755c0-115.293-93.463-208.753-208.756-208.753s-208.756 93.46-208.756 208.753zM-0.483 511.999c0-17.501 14.188-31.691 31.691-31.691h154.932c17.502 0 31.69 14.19 31.69 31.691s-14.188 31.691-31.69 31.691h-154.932c-17.502 0-31.691-14.19-31.691-31.691zM774.173 511.999c0-17.501 14.19-31.691 31.691-31.691h154.931c17.504 0 31.691 14.19 31.691 31.691s-14.187 31.691-31.691 31.691h-154.931c-17.501 0-31.691-14.19-31.691-31.691zM297.079 313.076c-12.375 12.378-32.441 12.378-44.816 0l-110.666-110.663c-12.376-12.378-12.376-32.442 0-44.817 12.376-12.378 32.441-12.378 44.817 0l110.665 110.663c12.378 12.378 12.378 32.442 0 44.817zM694.925 313.076c-12.378-12.375-12.378-32.439 0-44.817l110.663-110.663c12.378-12.378 32.442-12.378 44.817 0 12.378 12.375 12.378 32.439 0 44.817l-110.663 110.663c-12.378 12.378-32.442 12.378-44.817 0zM496.002 233.828c-17.501 0-31.691-14.19-31.691-31.691v-154.931c0-17.501 14.19-31.691 31.691-31.691s31.691 14.19 31.691 31.691v154.931c0 17.501-14.19 31.691-31.691 31.691z" />
<glyph unicode="&#xe90e;" glyph-name="moon" horiz-adv-x="980" d="M412.674 1004.56c5.735 13.047 18.883 20.423 32.205 19.312 23.56 0.58 145.669 0.714 266.743-56.348 65.417-30.831 131.344-78.743 180.814-152.917 49.579-74.338 81.192-172.917 81.192-302.568 0-127.254-30.493-224.596-78.574-298.477-47.991-73.741-112.162-122.053-176.43-153.579-127.504-62.54-258.209-60.393-275.747-59.823-14.25 0.462-26.502 10.143-30.44 23.884-4.274 14.911 2.284 31.653 17.145 38.949 11.906 5.844 204.896 104.817 204.896 449.045 0 332.678-180.315 436.45-203.16 448.276-12.049 4.367-20.877 15.785-21.401 29.509l-0.006 0.179c-0.194 4.85 0.684 9.82 2.764 14.557zM548.57 950.078c68.855-71.608 150.562-205.579 150.562-438.038 0-232.54-81.784-366.518-150.674-438.093 42.203 7.279 92.521 20.602 141.937 44.839 56.113 27.523 110.334 68.764 150.643 130.702 40.219 61.797 67.934 146.258 67.934 262.552 0 118.474-28.724 203.922-70.146 266.031-41.532 62.274-97.273 103.232-154.524 130.215-47.41 22.345-95.294 34.842-135.732 41.792zM102.021 579.124l-54.134 15.154c-15.89 4.446-30.293-3.685-36.952-15.018-7.004-11.916-7.164-31.485 8.495-43.357l40.306-30.558-14.95-44.833c-6.134-18.393 4.48-34.284 16.662-40.293 11.614-5.729 27.733-4.589 38.604 7.445l35.54 39.347 54.134-15.154c15.89-4.446 30.293 3.685 36.952 15.018 7.004 11.916 7.164 31.485-8.495 43.357l-40.306 30.558 14.95 44.833c6.134 18.393-4.48 34.284-16.662 40.293-11.613 5.729-27.733 4.589-38.605-7.445l-35.54-39.347zM332.127 501.162l-21.386-21.386c-14.028-14.028-11.052-33.507-2.443-44.287 8.138-10.187 23.295-16.088 38.24-9.738l33.22 14.118 26.662-22.38c12.318-10.34 28.343-9.329 39.088-2.128 11.351 7.607 19.944 25.054 11.049 42.63l-13.048 25.772 21.386 21.383c14.028 14.028 11.052 33.507 2.443 44.29-8.138 10.187-23.295 16.088-38.24 9.735l-33.22-14.118-26.662 22.38c-12.321 10.343-28.346 9.329-39.088 2.128-11.351-7.607-19.944-25.054-11.049-42.627l13.048-25.772zM201.441 433.748c-12.768-4.368-25.025-18.459-21.734-37.142l16.002-90.826-86.659-49.205c-16.81-9.544-19.445-28.661-14.23-41.454 5.010-12.29 18.385-22.633 35.065-20.168l103.931 15.37 54.818-81.036c9.233-13.647 25.279-16.899 37.579-12.69 12.767 4.368 25.023 18.459 21.732 37.139l-16 90.826 86.659 49.208c16.808 9.544 19.444 28.658 14.231 41.451-5.011 12.29-18.383 22.636-35.067 20.168l-103.931-15.37-54.816 81.039c-9.231 13.644-25.277 16.896-37.577 12.69zM699.132 512.038c0 232.46-81.707 366.432-150.562 438.038 40.436-6.951 88.321-19.448 135.732-41.792 57.251-26.983 112.992-67.942 154.524-130.215 41.423-62.109 70.146-147.556 70.146-266.031 0-116.293-27.717-200.755-67.934-262.552-40.309-61.938-94.53-103.179-150.643-130.702-49.416-24.237-99.735-37.56-141.937-44.839 68.889 71.576 150.674 205.554 150.674 438.093z" />
<glyph unicode="&#xe90f;" glyph-name="smile" horiz-adv-x="992" d="M496.003 80.517c-238.303 0-431.484 193.182-431.484 431.483s193.181 431.484 431.484 431.484c238.3 0 431.483-193.182 431.483-431.484 0-238.3-193.182-431.483-431.483-431.483zM496.003 15.514c274.199 0 496.485 222.286 496.485 496.485 0 274.201-222.286 496.485-496.485 496.485-274.202 0-496.486-222.284-496.486-496.485 0-274.199 222.284-496.485 496.486-496.485zM417.592 642.668c0-28.864-23.397-52.261-52.261-52.261s-52.261 23.397-52.261 52.261c0 28.861 23.397 52.261 52.261 52.261s52.261-23.4 52.261-52.261zM678.939 642.668c0-28.864-23.4-52.261-52.264-52.261-28.861 0-52.261 23.397-52.261 52.261 0 28.861 23.4 52.261 52.261 52.261 28.864 0 52.264-23.4 52.264-52.261zM721.196 433.61h-450.419c-5.634 0-10.238-4.31-9.9-9.933 2.068-34.475 24.929-146.851 235.11-146.851s233.041 112.376 235.11 146.851c0.338 5.623-4.267 9.933-9.902 9.933z" />
<glyph unicode="&#xe910;" glyph-name="arrow-down" horiz-adv-x="987" d="M7.946 764.191c10.578 10.578 27.728 10.578 38.306 0l447.255-447.255 447.253 447.255c10.578 10.578 27.73 10.578 38.307 0s10.578-27.728 0-38.306l-465.846-465.845c0 0 0 0 0 0-10.89-10.89-28.543-10.886-39.428 0l-465.847 465.845c-10.578 10.578-10.578 27.728 0 38.306z" />
<glyph unicode="&#xe911;" glyph-name="logout" horiz-adv-x="979" d="M544.167 987.201c0-20.308 16.463-36.772 36.769-36.772h185.556c60.925 0 110.315-49.389 110.315-110.315v-656.233c0-60.925-49.389-110.315-110.315-110.315h-185.556c-20.306 0-36.769-16.463-36.769-36.773 0-20.306 16.463-36.769 36.769-36.769h185.556c101.544 0 183.86 82.315 183.86 183.857v656.233c0 101.542-82.315 183.859-183.86 183.859h-185.556c-20.306 0-36.769-16.463-36.769-36.772zM358.083 774.96c-14.006 14.706-37.281 15.274-51.988 1.268l-277.441-264.228 277.441-264.23c14.706-14.006 37.982-13.44 51.988 1.267s13.44 37.982-1.267 51.988l-182.913 174.203h490.194c20.309 0 36.773 16.463 36.773 36.773 0 20.306-16.463 36.769-36.773 36.769h-490.194l182.913 174.204c14.707 14.006 15.273 37.281 1.267 51.988z" />
<glyph unicode="&#xe912;" glyph-name="dot-circle" horiz-adv-x="992" d="M46.073 511.995c0 248.494 201.445 449.938 449.938 449.938 248.497 0 449.939-201.445 449.939-449.938 0-248.497-201.443-449.939-449.939-449.939-248.493 0-449.938 201.443-449.938 449.939zM496.010 1008.479c-274.2 0-496.483-222.284-496.483-496.484 0-274.202 222.284-496.485 496.483-496.485 274.202 0 496.485 222.282 496.485 496.485 0 274.2-222.282 496.484-496.485 496.484zM188.667 512.022c0 32.641 26.462 59.103 59.106 59.103s59.105-26.463 59.105-59.103c0-32.644-26.462-59.107-59.105-59.107s-59.106 26.463-59.106 59.107zM425.084 512.022c0 32.641 26.463 59.103 59.103 59.103 32.644 0 59.107-26.463 59.107-59.103 0-32.644-26.463-59.107-59.107-59.107-32.641 0-59.103 26.463-59.103 59.107zM661.507 512.022c0 32.641 26.463 59.103 59.107 59.103s59.103-26.463 59.103-59.103c0-32.644-26.46-59.107-59.103-59.107s-59.107 26.463-59.107 59.107z" />
<glyph unicode="&#xe913;" glyph-name="laod" horiz-adv-x="992" d="M495.999 946.717c-240.091 0-434.722-194.631-434.722-434.72 0-240.091 194.631-434.722 434.722-434.722 149.436 0 281.305 75.394 359.573 190.324h-204.372c-17.057 0-30.884 13.827-30.884 30.881s13.827 30.881 30.884 30.881h289.55v-282.968c0-17.057-13.827-30.881-30.881-30.881-17.057 0-30.884 13.824-30.884 30.881v149.65c-91.037-110.229-228.786-180.531-382.985-180.531-274.202 0-496.486 222.282-496.486 496.485 0 274.2 222.284 496.484 496.486 496.484 274.199 0 496.485-222.284 496.485-496.484 0-17.057-13.827-30.881-30.881-30.881-17.057 0-30.884 13.824-30.884 30.881 0 240.089-194.631 434.72-434.719 434.72z" />
<glyph unicode="&#xe914;" glyph-name="birthday" horiz-adv-x="981" d="M440.11 895.197l101.054 0.515-50.975 128.274zM440.11 895.197c-8.068-20.738-2.863-44.368 13.216-59.719 20.832-19.891 53.356-19.945 74.298-0.378zM541.164 895.712c8.381-21.089 2.963-45.196-13.539-60.611zM541.164 895.712l-101.054-0.515zM459.476 753.020c0 17.244 13.891 31.223 31.027 31.223s31.027-13.979 31.027-31.223v-78.841l294.111-33.007c60.923-6.838 106.852-58.811 106.852-120.483v-390.131c0-57.289-42.665-105.578-99.274-111.933-221.13-24.819-444.299-24.819-665.429 0-56.61 6.356-99.275 54.644-99.275 111.933v390.131c0 61.673 45.927 113.645 106.852 120.483l294.112 33.007v78.841zM490.503 614.828l-318.26-35.718c-29.326-3.293-51.676-28.374-51.676-58.42v-69.538l47.985-16.157c13.892-4.679 32.115-5.289 51.797-1.46 19.534 3.801 38.268 11.561 52.417 21.087 50.91 34.281 117.255 34.281 168.163 0 30.025-20.217 69.122-20.217 99.146 0 50.908 34.281 117.254 34.281 168.162 0 14.15-9.526 32.885-17.286 52.418-21.087 19.682-3.83 37.905-3.22 51.797 1.46l47.986 16.157v69.538c0 30.046-22.351 55.129-51.676 58.42l-318.26 35.718zM860.439 385.304l-28.297-9.526c-26.796-9.024-56.39-8.784-83.269-3.551-27.029 5.26-53.608 15.997-75.143 30.498-30.028 20.22-69.122 20.22-99.146 0-50.908-34.281-117.254-34.281-168.162 0-30.025 20.22-69.12 20.22-99.145 0-21.537-14.503-48.116-25.238-75.145-30.498-26.881-5.232-56.472-5.472-83.269 3.551l-28.296 9.526v-254.745c0-25.663 19.086-47.064 44.099-49.871 216.559-24.304 435.113-24.304 651.671 0 25.013 2.806 44.101 24.207 44.101 49.871v254.745zM541.164 895.712l-101.054-0.515 87.515-60.097 13.539 60.611z" />
<glyph unicode="&#xe915;" glyph-name="location" horiz-adv-x="973" d="M337.508 906.803c-34.745-29.039-57.894-68.156-73.193-108.028-31.469-82.007-8.875-175.147 30.757-267.51l191.422-446.129 191.422 446.129c39.631 92.363 62.226 185.503 30.757 267.51-15.299 39.871-38.45 78.989-73.195 108.028-34.188 28.573-81.585 49.086-148.985 49.086-67.402 0-114.798-20.513-148.986-49.086zM294.972 959.401c46.8 39.113 109.434 64.579 191.522 64.579s144.723-25.466 191.522-64.579c46.242-38.648 75.041-88.924 93.060-135.88 41.731-108.754 9.171-224.072-31.766-319.48l-201.656-469.975c-19.481-45.41-82.838-45.41-102.322 0l-201.655 469.975c-40.937 95.409-73.494 210.727-31.764 319.48 18.018 46.956 46.815 97.233 93.058 135.88zM533.818 753.517c-26.069 26.038-68.577 26.038-94.646 0-25.74-25.709-25.74-67.142 0-92.85 26.069-26.040 68.576-26.040 94.646 0 25.74 25.708 25.74 67.14 0 92.85zM392.229 802.087c52.128 52.066 136.402 52.066 188.531 0 52.456-52.395 52.456-137.597 0-189.993-52.129-52.065-136.404-52.065-188.531 0-52.456 52.395-52.456 137.597 0 189.993z" />
<glyph unicode="&#xe916;" glyph-name="star" horiz-adv-x="992" d="M531.066 982.35c-10.877 34.192-59.24 34.192-70.115 0l-101.747-319.885h-322.329c-35.211 0-50.307-44.725-22.3-66.076l260.452-198.566-106.132-333.682c-10.899-34.275 28.765-62.232 57.358-40.428l269.75 205.649 269.75-205.649c28.593-21.802 68.259 6.153 57.358 40.428l-106.132 333.682 260.452 198.566c28.007 21.349 12.913 66.076-22.3 66.076h-322.329l-101.747 319.885zM496.010 878.37l81.17-255.208c4.859-15.275 19.036-25.644 35.057-25.644h259.569l-209.94-160.054c-12.367-9.427-17.475-25.61-12.757-40.432l85.121-267.623-215.916 164.61c-13.172 10.041-31.429 10.041-44.603 0l-215.916-164.61 85.121 267.623c4.714 14.822-0.394 31.004-12.757 40.432l-209.94 160.054h259.565c16.024 0 30.201 10.373 35.060 25.644l81.17 255.208z" />
<glyph unicode="&#xe917;" glyph-name="circle-cross" horiz-adv-x="992" d="M495.997 958.452c-246.574 0-446.462-199.887-446.462-446.462 0-246.572 199.889-446.46 446.462-446.46s446.46 199.889 446.46 446.46c0 246.575-199.889 446.462-446.46 446.462zM0.013 511.989c0 273.925 222.060 495.985 495.984 495.985s495.984-222.060 495.984-495.985c0-273.923-222.062-495.984-495.984-495.984-273.924 0-495.984 222.062-495.984 495.984zM282.145 725.841c-9.67-9.67-9.67-25.348 0-35.017l178.833-178.837-178.833-178.834c-9.67-9.668-9.67-25.348 0-35.017 9.67-9.671 25.348-9.671 35.019 0l178.834 178.834 178.834-178.834c9.668-9.671 25.348-9.671 35.020 0 9.668 9.668 9.668 25.348 0 35.017l-178.837 178.834 178.837 178.837c9.668 9.668 9.668 25.347 0 35.017-9.671 9.67-25.352 9.67-35.020 0l-178.834-178.834-178.834 178.834c-9.671 9.67-25.35 9.67-35.019 0z" />
<glyph unicode="&#xe918;" glyph-name="circle-warning" horiz-adv-x="976" d="M487.996 951.262c-242.598 0-439.262-196.665-439.262-439.263 0-242.596 196.665-439.262 439.262-439.262 242.6 0 439.264 196.666 439.264 439.262 0 242.6-196.666 439.263-439.264 439.263zM0.010 511.998c0 269.508 218.479 487.988 487.986 487.988s487.987-218.479 487.987-487.988c0-269.506-218.477-487.987-487.987-487.987-269.507 0-487.986 218.482-487.986 487.987zM487.993 832.55c-13.452 0-24.36-10.907-24.36-24.362v-420.505c0-13.452 10.906-24.36 24.363-24.36 13.452 0 24.36 10.906 24.36 24.36v420.505c0 13.454-10.906 24.362-24.363 24.362zM509.471 265.36c6.719-3.632 11.288-9.305 13.825-15.432 2.522-6.094 2.778-11.965 2.778-15.382 0-4.084-0.342-10.998-4.126-18.068-3.959-7.399-9.899-11.745-14.734-14.445-7.604-4.249-16.549-5.051-22.709-4.746-3.556 0.177-7.936 0.79-12.41 2.439-4.276 1.579-10.65 4.868-15.286 11.682-4.883 7.176-6.658 15.71-6.868 22.356-0.174 5.615 0.519 18.309 10.61 27.498 10.836 9.863 24.134 9.659 27.377 9.61 0.183-0.003 0.333-0.006 0.448-0.006 2.73 0 6.146-0.277 9.589-0.998 1.696-0.354 6.551-1.382 11.508-4.51z" />
<glyph unicode="&#xe919;" glyph-name="circle-money" horiz-adv-x="976" d="M487.997 951.254c-242.599 0-439.265-196.664-439.265-439.264 0-242.596 196.665-439.262 439.265-439.262 242.596 0 439.262 196.665 439.262 439.262 0 242.599-196.665 439.264-439.262 439.264zM0.009 511.99c0 269.509 218.479 487.988 487.988 487.988 269.506 0 487.987-218.479 487.987-487.988 0-269.506-218.481-487.987-487.987-487.987-269.509 0-487.988 218.481-487.988 487.987zM487.997 834.705c-13.457 0-24.363-10.907-24.363-24.362v-51.257h-2.818c-71.6 0-129.646-58.045-129.646-129.647 0-65.631 49.043-120.908 114.204-128.724l39.6-4.752 44.413-5.776c38.158-4.963 66.711-37.466 66.711-75.946 0-42.296-34.29-76.583-76.586-76.583h-56.814c-44.916 0-89.213 10.458-129.387 30.545-12.035 6.017-26.669 1.137-32.686-10.897-6.017-12.031-1.139-26.666 10.894-32.683 46.939-23.469 98.698-35.69 151.178-35.69h0.937v-41.869c0-13.453 10.906-24.363 24.363-24.363 13.453 0 24.36 10.91 24.36 24.363v41.869h7.155c69.209 0 125.309 56.103 125.309 125.309 0 62.963-46.715 116.147-109.15 124.266l-44.532 5.792-39.96 4.792c-40.674 4.88-71.286 39.383-71.286 80.35 0 44.691 36.233 80.923 80.924 80.923h27.181c39.774 0 79.002-9.261 114.577-27.049l6.99-3.495 21.792 43.58-6.993 3.496c-35.053 17.527-73.088 28.098-112.006 31.217v52.231c0 13.455-10.906 24.362-24.36 24.362z" />
<glyph unicode="&#xe91a;" glyph-name="circle-banned" horiz-adv-x="992" d="M495.99 936.74c-234.577 0-424.738-190.162-424.738-424.738 0-104.48 37.685-200.099 100.264-274.097l598.571 598.571c-73.997 62.579-169.618 100.264-274.097 100.264zM820.463 786.097l-598.569-598.569c73.996-62.581 169.619-100.267 274.095-100.267 234.577 0 424.74 190.163 424.74 424.74 0 104.476-37.686 200.099-100.267 274.095zM0.005 512.002c0 273.925 222.060 495.984 495.984 495.984 136.954 0 260.997-55.554 350.715-145.271s145.271-213.763 145.271-350.714c0-273.926-222.058-495.985-495.985-495.985-136.954 0-260.998 55.553-350.715 145.271-89.717 89.715-145.271 213.761-145.271 350.715z" />
<glyph unicode="&#xe91b;" glyph-name="user" horiz-adv-x="986" d="M278.952 813.16c0 117.403 96.806 210.824 214.048 210.824 117.24 0 214.045-93.421 214.045-210.824s-96.806-210.825-214.045-210.825c-117.242 0-214.048 93.422-214.048 210.825zM493 952.565c-80.099 0-143.266-63.383-143.266-139.405s63.168-139.405 143.266-139.405c80.095 0 143.265 63.383 143.265 139.405s-63.17 139.405-143.265 139.405zM319.050 482.985c-90.633-10.366-163.585-79.89-179.009-170.601l-26.037-153.119c-4.878-28.692 14.373-55.892 42.856-60.545 222.642-36.372 449.635-36.372 672.278 0 28.482 4.653 47.733 31.853 42.855 60.545l-26.038 153.119c-15.425 90.711-88.376 160.234-179.009 170.601-115.593 13.217-232.302 13.217-347.898 0zM311.078 553.95c120.894 13.823 242.946 13.823 363.838 0 121.921-13.943 220.054-107.467 240.803-229.486l26.033-153.119c11.534-67.832-33.976-132.128-101.303-143.126-230.138-37.596-464.768-37.596-694.903 0-67.328 10.998-112.839 75.294-101.306 143.126l26.037 153.119c20.748 122.020 118.882 215.545 240.8 229.486z" />
<glyph unicode="&#xe91c;" glyph-name="accept" horiz-adv-x="992" d="M4.486 638.725v-253.454c0-201.47 163.323-364.794 364.793-364.794h253.454c201.47 0 364.794 163.324 364.794 364.794v192.872c0 19.497-15.806 35.303-35.303 35.303s-35.303-15.806-35.303-35.303v-192.872c0-162.476-131.711-294.187-294.187-294.187h-253.454c-162.476 0-294.188 131.711-294.188 294.187v253.454c0 162.476 131.712 294.188 294.188 294.188h311.437c19.497 0 35.299 15.805 35.299 35.303s-15.802 35.302-35.299 35.302h-311.437c-201.47 0-364.793-163.323-364.793-364.793zM976.599 900.937c-14.103 13.462-36.45 12.943-49.91-1.161l-439.108-460.012-208.727 198.474c-14.129 13.435-36.474 12.872-49.909-1.257s-12.872-36.474 1.256-49.909l227.45-216.281c17.875-16.994 46.133-16.31 63.16 1.528v0l456.946 478.705c13.464 14.103 12.943 36.449-1.159 49.912zM506.284 421.98c0.008-0.008 0.016-0.012 0.025-0.020v0l-0.025 0.020z" />
<glyph unicode="&#xe91d;" glyph-name="edit" horiz-adv-x="992" d="M840.444 994.997c14.94 15.129 39.357 15.129 54.293 0l84.604-85.686c14.675-14.861 14.675-38.76 0-53.622l-90.317-91.475-353.418-360.928-211.407-115.716c-26.602-14.566-55.861 14.389-41.58 41.147 0 0.004-0.001 0 0 0l114.169 213.956 353.481 360.992 90.176 91.331zM867.59 828.253l53.562 54.247-53.562 54.247-53.559-54.247 53.559-54.247zM771.79 839.537l-308.22-314.769 53.559-54.244 308.22 314.768-53.559 54.244zM467.729 434.815l-39.092 39.59-45.967-86.15 85.059 46.56zM335.775 300.375c-0.005-0.007 0.005 0.011 0 0zM883.307 952.665c-0.004-0.003 0.004 0.003 0 0zM851.891 952.647c-0.004 0.006 0.007-0.006 0 0zM1.656 530.009v-201.075c0-171.915 139.345-311.278 311.237-311.278h188.582c171.891 0 311.236 139.363 311.236 311.278v218.003c0 16.638-13.485 30.123-30.12 30.123-16.631 0-30.12-13.485-30.12-30.123v-218.003c0-138.639-112.375-251.032-250.997-251.032h-188.582c-138.622 0-250.997 112.393-250.997 251.032v201.075c0 138.643 112.375 251.035 250.997 251.035h246.283c16.635 0 30.12 13.487 30.12 30.124s-13.485 30.124-30.12 30.124h-246.283c-171.891 0-311.236-139.366-311.236-311.283z" />
<glyph unicode="&#xe91e;" glyph-name="trash" horiz-adv-x="987" d="M613.036 948.249l6.254-18.519h-251.571l6.255 18.519c79.504 7.686 159.556 7.686 239.061 0zM692.582 929.732h142.238c20.074 0 37.6-13.726 42.568-33.345l24.314-95.973c7.102-28.026-13.889-55.289-42.568-55.289h-40.525v-700.793c0-24.477-19.672-44.317-43.937-44.317h-562.334c-24.266 0-43.938 19.841-43.938 44.317v700.793h-40.526c-28.679 0-49.67 27.263-42.57 55.289l24.315 95.973c4.97 19.619 22.494 33.345 42.57 33.345h142.238l20.141 59.625c4.882 14.45 17.602 24.755 32.645 26.443 97.227 10.918 195.357 10.918 292.581 0 15.044-1.689 27.766-11.994 32.645-26.444l20.143-59.625zM171.944 859.757l-11.314-44.658h665.749l-11.313 44.658h-643.122zM237.777 745.125v-675.136h511.456v675.136h-511.456zM348.297 700.467c-19.157 0-34.687-15.664-34.687-34.987v-515.847c0-19.321 15.53-34.987 34.687-34.987s34.687 15.667 34.687 34.987v515.847c0 19.323-15.53 34.987-34.687 34.987zM493.505 700.467c-19.158 0-34.688-15.664-34.688-34.987v-515.847c0-19.321 15.53-34.987 34.688-34.987 19.156 0 34.688 15.667 34.688 34.987v515.847c0 19.323-15.532 34.987-34.688 34.987zM638.713 700.467c-19.156 0-34.688-15.664-34.688-34.987v-515.847c0-19.321 15.532-34.987 34.688-34.987s34.688 15.667 34.688 34.987v515.847c0 19.323-15.532 34.987-34.688 34.987z" />
<glyph unicode="&#xe91f;" glyph-name="hammer" horiz-adv-x="976" d="M223.013 801.976c-5.166 29.234 6.529 60.201 32.505 78.39l37.429 26.207c25.976 18.189 59.076 18.587 84.78 3.734l130.827 91.605c55.079 38.567 130.908 25.301 169.374-29.63l107.796-153.951c38.466-54.931 24.995-130.725-30.085-169.292l-124.842-87.416 295.058-421.388c17.484-24.969 11.362-59.42-13.676-76.949l-76.018-53.233c-25.038-17.53-59.505-11.499-76.989 13.47l-295.058 421.388-124.841-87.416c-55.079-38.567-130.91-25.299-169.374 29.63l-107.798 153.952c-38.464 54.932-24.993 130.725 30.086 169.293l130.826 91.605zM576.4 523.534l-57.887-40.534 288.728-412.347 57.887 40.534-288.728 412.347zM717.65 703.289c25.038 17.532 31.16 51.983 13.676 76.953l-107.799 153.951c-17.484 24.968-51.952 30.999-76.986 13.469l-416.366-291.542c-25.036-17.53-31.158-51.984-13.675-76.954l107.798-153.949c17.483-24.969 51.952-31 76.988-13.47l416.365 291.542z" />
<glyph unicode="&#xe920;" glyph-name="calendar" horiz-adv-x="992" d="M191.996 905.368c39.857-21.894 88.139-21.894 127.996 0 0 0 0 102.618-63.999 102.618s-63.999-102.618-63.999-102.618zM671.981 905.368c39.859-21.894 88.139-21.894 127.998 0 0 0 0 102.618-64.001 102.618-63.998 0-63.998-102.618-63.998-102.618zM149.645 905.368c-82.646 0-149.642-66.998-149.642-149.643v-590.067c0-82.647 66.998-149.642 149.642-149.642h692.685c82.644 0 149.642 66.996 149.642 149.642v590.068c0 82.645-66.999 149.642-149.642 149.642h-42.351c0 0 0-102.618-64.001-102.618-63.998 0-63.998 102.618-63.998 102.618h-351.989c0 0 0-102.618-63.999-102.618s-63.999 102.618-63.999 102.618h-42.351zM145.881 118.632c-27.548 0-49.881 22.332-49.881 49.881v379.122c0 27.549 22.333 49.881 49.881 49.881h700.214c27.549 0 49.881-22.332 49.881-49.881v-379.122c0-27.549-22.332-49.881-49.881-49.881h-700.214z" />
<glyph unicode="&#xe921;" glyph-name="send" horiz-adv-x="992" d="M560.547 1004.214c-271.842 35.651-521.114-155.82-556.765-427.663s155.82-521.114 427.663-556.764c271.841-35.651 521.114 155.819 556.764 427.663 35.651 271.841-155.819 521.114-427.663 556.764zM397.433 480.46c0.611 1.384 1.589 2.576 2.827 3.441v0c1.145 0.801 2.47 1.297 3.86 1.449l169.72 18.317c3.544 0.717 6.187 3.69 6.488 7.295l0.099 1.188-0.068 0.785c-0.323 3.655-2.951 6.693-6.519 7.537v0l-174.735 18.596-60.518 138.224c-0.528 1.207-0.555 2.579-0.071 3.807v0c1.040 2.647 4.087 3.879 6.675 2.703l367.793-167.123c2.104-0.956 3.302-3.205 2.923-5.486v0c-0.279-1.676-1.375-3.103-2.923-3.804l-367.47-167.132c-2.411-1.095-5.263-0.205-6.619 2.073v0c-0.863 1.446-0.971 3.221-0.292 4.76l58.83 133.368z" />
<glyph unicode="&#xe922;" glyph-name="circle-clock" d="M507.927 951.257c-246.412 0-446.17-199.758-446.17-446.171 0-246.415 199.758-446.171 446.17-446.171 246.415 0 446.171 199.756 446.171 446.171 0 246.413-199.756 446.171-446.171 446.171zM17.871 505.087c0 270.65 219.406 490.056 490.056 490.056 270.652 0 490.057-219.406 490.057-490.056 0-270.652-219.405-490.057-490.057-490.057-270.65 0-490.056 219.405-490.056 490.057zM507.927 854.709c-12.118 0-21.943-9.824-21.943-21.943v-327.533c0-6.998 3.294-13.59 8.894-17.788l187.129-140.347c9.696-7.273 23.45-5.307 30.72 4.389 7.273 9.693 5.307 23.447-4.389 30.72l-178.469 133.851v316.708c0 12.119-9.822 21.943-21.943 21.943z" />
<glyph unicode="&#xe923;" glyph-name="sent" horiz-adv-x="982" d="M981.99 792.807l-641.366-641.369-340.621 340.622 79.748 79.748 260.873-260.873 561.619 561.62 79.747-79.747z" />
<glyph unicode="&#xe924;" glyph-name="read" horiz-adv-x="986" d="M698.705 806.36l-432.474-455.238-199.575 210.079-66.653-63.321 266.227-280.238 499.127 525.398-66.653 63.32zM919.348 806.36l-432.969-455.756-21.375 21.837-65.7-64.305 88.061-89.973 498.635 524.877-66.653 63.32zM286.149 428.929l66.651 63.322-65.502 68.95-66.653-63.321 65.503-68.951z" />
<glyph unicode="&#xe925;" glyph-name="attacth" horiz-adv-x="977" d="M709.241 933.678l-621.961-622.439c-0.133-0.14-0.364-0.382-0.683-0.723-0.638-0.686-1.624-1.772-2.876-3.233-2.508-2.926-6.059-7.323-10.007-12.992-7.945-11.407-17.23-27.561-23.069-46.874-5.807-19.211-8.158-41.345-2.606-65.226 5.536-23.813 19.212-50.595 47.349-78.752 28.138-28.16 54.897-41.847 78.694-47.386 23.862-5.554 45.979-3.205 65.173 2.607 19.301 5.846 35.443 15.137 46.839 23.090 5.664 3.95 10.060 7.503 12.984 10.013 1.459 1.254 2.544 2.24 3.23 2.877 0.342 0.32 0.584 0.552 0.722 0.686l0.098 0.093 0.023 0.022 565.331 565.763c7.295 7.301 19.121 7.301 26.416 0 7.295-7.298 7.295-19.133 0-26.435l-565.354-565.785-13.21 13.216c13.21-13.216 13.203-13.225 13.194-13.231l-0.18-0.18-0.363-0.354c-0.298-0.285-0.704-0.676-1.219-1.157-1.030-0.959-2.495-2.287-4.363-3.891-3.733-3.202-9.117-7.543-15.945-12.307-13.588-9.48-33.282-20.905-57.384-28.203-24.209-7.329-53.063-10.547-84.457-3.236-31.459 7.323-64.24 24.933-96.645 57.363s-50.001 65.235-57.32 96.718c-7.303 31.418-4.089 60.295 3.236 84.523 7.293 24.12 18.707 43.83 28.18 57.428 4.76 6.833 9.097 12.22 12.3 15.956 1.603 1.871 2.928 3.336 3.888 4.366 0.48 0.515 0.869 0.925 1.156 1.223l0.354 0.363 0.117 0.118 0.043 0.043 0.018 0.019c0.008 0.006 0.015 0.016 13.016-12.995l-13.001 13.011 621.888 622.364 13.21-13.218c-13.21 13.218-13.216 13.211-13.21 13.218l0.034 0.032 0.040 0.041 0.444 0.435c0.273 0.263 0.642 0.615 1.108 1.049 0.928 0.867 2.243 2.060 3.919 3.501 3.342 2.877 8.155 6.767 14.252 11.039 12.124 8.495 29.708 18.771 51.225 25.404 21.619 6.664 47.436 9.711 75.509 3.336 28.151-6.393 57.322-21.979 85.973-50.652s44.224-57.867 50.614-86.039c6.371-28.094 3.326-53.93-3.333-75.566-6.628-21.534-16.896-39.132-25.386-51.265-4.267-6.101-8.155-10.918-11.028-14.265-1.44-1.676-2.631-2.99-3.5-3.921-0.431-0.465-0.785-0.835-1.046-1.108l-0.326-0.332-0.109-0.112-0.059-0.059c-0.009-0.009-0.016-0.016-13.225 13.203l13.225-13.203-452.298-452.645-13.21 13.219c13.21-13.219 13.216-13.21 13.21-13.219l-0.071-0.071-0.406-0.394c-0.242-0.236-0.568-0.546-0.977-0.928-0.816-0.76-1.958-1.797-3.413-3.044-2.901-2.492-7.059-5.846-12.328-9.52-10.463-7.298-25.678-16.133-44.355-21.789-18.786-5.688-41.267-8.208-65.753-2.507-24.554 5.716-49.891 19.416-74.729 44.271s-38.524 50.213-44.236 74.786c-5.697 24.505-3.178 47.005 2.505 65.803 5.651 18.69 14.478 33.916 21.774 44.389 3.672 5.272 7.023 9.436 9.511 12.338 1.246 1.455 2.283 2.6 3.042 3.416 0.38 0.41 0.692 0.735 0.927 0.977l0.294 0.304 0.102 0.102 0.039 0.040 0.017 0.016c0.007 0.009 0.015 0.016 13.223-13.203l-13.223 13.203 254.424 254.619 13.151-13.163c-13.151 13.163-13.16 13.156-13.151 13.163l0.031 0.031 0.037 0.038 0.096 0.095 0.27 0.264c0.217 0.208 0.503 0.481 0.856 0.81 0.704 0.658 1.688 1.548 2.929 2.612 2.476 2.124 6.014 4.971 10.482 8.084 8.875 6.178 21.808 13.67 37.736 18.452 16.033 4.814 35.281 6.925 56.27 1.983 21.048-4.956 42.623-16.719 63.662-37.774s32.793-42.647 37.745-63.711c4.937-21.004 2.827-40.268-1.983-56.314-4.779-15.937-12.263-28.88-18.438-37.761-3.109-4.475-5.955-8.015-8.077-10.494-1.064-1.241-1.952-2.225-2.61-2.932-0.329-0.354-0.602-0.639-0.81-0.853l-0.357-0.369-0.037-0.037-0.019-0.016c-0.006-0.006-0.012-0.016-13.222 13.203l13.222-13.203-197.886-198.038c-7.295-7.301-19.121-7.301-26.416 0-7.295 7.298-7.295 19.133 0 26.435l197.812 197.964c-0.003-0.003 0.012 0.009 0.019 0.019 0.006 0.006 0.003 0.003 0.016 0.016l0.332 0.354c0.335 0.36 0.881 0.962 1.592 1.79 1.427 1.663 3.482 4.211 5.775 7.512 4.639 6.672 9.992 16.046 13.324 27.158 3.299 11 4.568 23.521 1.399 37.007-3.156 13.424-10.997 29.023-27.797 45.835s-32.389 24.66-45.801 27.818c-13.476 3.173-25.985 1.901-36.979-1.4-11.103-3.335-20.468-8.691-27.136-13.333-3.302-2.296-5.846-4.354-7.506-5.778-0.829-0.714-1.43-1.26-1.79-1.595l-0.351-0.329-254.399-254.597c-0.081-0.084-0.234-0.242-0.453-0.478-0.438-0.472-1.135-1.238-2.030-2.284-1.794-2.091-4.359-5.269-7.219-9.374-5.767-8.279-12.465-19.952-16.663-33.835-4.166-13.781-5.82-29.538-1.876-46.508 3.929-16.902 13.696-36.234 34.266-56.82s39.888-30.36 56.777-34.292c16.955-3.947 32.7-2.29 46.468 1.877 13.877 4.202 25.538 10.904 33.811 16.676 4.105 2.864 7.277 5.43 9.368 7.224 1.046 0.897 1.812 1.595 2.281 2.032 0.236 0.22 0.397 0.372 0.481 0.453l0.016 0.016 0.022 0.025 0.019 0.016 452.304 452.651c0.109 0.114 0.304 0.32 0.58 0.614 0.546 0.589 1.403 1.531 2.495 2.802 2.188 2.548 5.297 6.389 8.76 11.339 6.976 9.971 15.121 24.053 20.285 40.827 5.132 16.672 7.255 35.769 2.603 56.286-4.633 20.44-16.272 43.534-40.597 67.876s-47.399 35.99-67.823 40.629c-20.502 4.656-39.585 2.529-56.246-2.606-16.759-5.167-30.832-13.318-40.796-20.299-4.946-3.466-8.785-6.577-11.329-8.767-1.272-1.093-2.212-1.949-2.802-2.499-0.292-0.274-0.5-0.471-0.611-0.581l-0.087-0.083z" />
<glyph unicode="&#xe926;" glyph-name="phone-support" horiz-adv-x="976" d="M342.437 830.801l34.034-46.976c28.95-39.959 31.397-93.030 6.245-135.432-25.235-42.538-22.682-95.804 6.506-135.788l123.537-169.239c27.934-38.27 76.808-55.572 122.945-43.529 46.287 12.083 95.305-5.368 123.19-43.855l37.402-51.625c34.396-47.479 26.943-112.99-17.259-151.719l-27.839-24.39c-32.608-28.569-78.865-36.169-119.061-19.565-101.062 41.748-187.76 111.513-249.649 200.893l-204.772 295.729c-56.207 81.174-79.616 180.235-65.607 277.641 3.357 23.342 17.122 43.964 37.504 56.187l38.299 22.968c51.865 31.104 119.196 17.466 154.526-31.299zM693.779 1022.27c109.562-14.213 186.732-113.587 172.363-221.96s-114.836-184.704-224.398-170.491c-109.562 14.21-186.732 113.586-172.363 221.959s114.836 184.704 224.398 170.492zM698.572 931.592c0.575 4.336-0.614 8.722-3.309 12.191-5.609 7.224-16.076 8.581-23.38 3.033-3.504-2.664-5.8-6.598-6.375-10.934l-17.715-133.623c-0.575-4.336 0.614-8.722 3.309-12.191 5.609-7.224 16.076-8.581 23.376-3.033 3.508 2.664 5.8 6.598 6.375 10.934l17.718 133.623zM669.117 709.434c10.325 7.847 12.268 22.489 4.337 32.705-7.934 10.215-22.739 12.136-33.064 4.289-10.328-7.847-12.268-22.489-4.337-32.703 7.934-10.217 22.736-12.139 33.064-4.291z" />
<glyph unicode="&#xe927;" glyph-name="phone-issue" horiz-adv-x="976" d="M344.65 840.467l34.429-47.522c29.286-40.423 31.762-94.115 6.318-137.006-25.528-43.032-22.946-96.917 6.582-137.37l124.973-171.206c28.259-38.711 77.701-56.218 124.374-44.031 46.825 12.219 96.413-5.433 124.622-44.369l37.836-52.225c34.796-48.028 27.256-114.303-17.459-153.479l-28.163-24.674c-32.987-28.901-79.782-36.593-120.445-19.795-102.237 42.234-189.942 112.813-252.551 203.228l-207.152 299.169c-56.86 82.115-80.541 182.33-66.37 280.867 3.396 23.613 17.321 44.474 37.94 56.84l38.744 23.235c52.468 31.466 120.582 17.668 156.322-31.664zM690.696 1022.227c111.821-14.665 190.58-117.199 175.914-229.019-14.663-111.82-117.197-190.579-229.017-175.914-111.821 14.663-190.58 117.199-175.914 229.018s117.2 190.578 229.017 175.914zM554.246 878.613c0-18.796 15.237-34.033 34.033-34.033s34.033 15.237 34.033 34.033c0 18.796-15.237 34.033-34.033 34.033s-34.033-15.237-34.033-34.033zM741.428 912.646c-18.796 0-34.033-15.237-34.033-34.033s15.237-34.033 34.033-34.033c18.796 0 34.033 15.237 34.033 34.033s-15.237 34.033-34.033 34.033zM568.424 739.126c-5.156-2.578-8.414-7.848-8.414-13.614 0-11.313 11.909-18.675 22.027-13.612l12.006 6.001c42.852 21.425 93.285 21.425 136.136 0l12.006-6.001c10.119-5.062 22.027 2.299 22.027 13.612 0 5.765-3.258 11.035-8.414 13.614l-8.367 4.182c-53.712 26.855-116.93 26.855-170.641 0l-8.367-4.182z" />
<glyph unicode="&#xe928;" glyph-name="email-support" horiz-adv-x="978" d="M624.836 693.169c0 96.353 79.057 174.461 176.583 174.461 97.523 0 176.58-78.109 176.58-174.461s-79.057-174.46-176.58-174.46c-9.24 0-18.313 0.699-27.167 2.052-40.049 6.109-75.655 25.515-102.055 53.507-12.656 13.421-23.197 28.814-31.095 45.664-8.639 18.426-14.117 38.591-15.751 59.818-0.341 4.429-0.515 8.905-0.515 13.42zM811.37 672.495l14.679 110.58c0.476 3.589-0.509 7.218-2.74 10.088-4.647 5.978-13.321 7.102-19.372 2.51-2.906-2.205-4.806-5.46-5.281-9.049l-14.679-110.58c-0.476-3.589 0.509-7.218 2.743-10.089 4.647-5.978 13.318-7.102 19.369-2.509 2.906 2.205 4.806 5.46 5.281 9.049zM777.844 629.842c-8.557-6.494-10.165-18.611-3.591-27.065 6.571-8.452 18.836-10.042 27.393-3.55 8.557 6.495 10.165 18.612 3.591 27.066-6.571 8.454-18.836 10.043-27.393 3.549zM433.312 428.894c-24.030-15.116-54.747-15.116-78.779 0 24.077-15.141 54.704-15.141 78.779 0zM576.128 693.169c1.918-34.603 5.954-67.266 21.090-96.483l-163.504-104.315c-24.222-15.454-55.359-15.454-79.58 0l-314.732 200.798h536.727zM0.010 651.876v-423.043c0-40.023 32.84-72.468 73.349-72.468h641.126c40.511 0 73.351 32.445 73.351 72.468l-1.116 242.409c-64.071 6.997-119.564 33.714-158.932 79.969l-194.475-122.317c-24.074-15.141-54.702-15.141-78.779 0l-354.523 222.982z" />
<glyph unicode="&#xe929;" glyph-name="email-filled" horiz-adv-x="984" d="M0.016 789.531v-483.698c0-67.284 54.543-121.828 121.826-121.828h740.327c67.28 0 121.824 54.544 121.824 121.828v483.698l-428.139-263.47c-39.158-24.096-88.543-24.096-127.698 0l-428.14 263.47zM427.494 603.859l-378.279 236.132h885.578l-378.279-236.132c-39.475-24.642-89.541-24.642-129.019 0z" />
<glyph unicode="&#xe92a;" glyph-name="confirm" horiz-adv-x="983" d="M975.117 843.516c-10.25 10.18-26.578 9.885-36.472-0.66l-568.493-605.866-326.404 325.251c-10.233 10.197-26.562 9.927-36.471-0.601s-9.648-27.329 0.584-37.526l344.713-343.497c10.382-10.345 26.951-10.057 36.987 0.637 0 0 0 0 0 0.003l586.196 624.732c9.895 10.544 9.606 27.345-0.641 37.525zM388.436 218.771c0.010-0.010 0.020-0.020 0.027-0.031v0.003l-0.027 0.027z" />
<glyph unicode="&#xe92b;" glyph-name="refuse" horiz-adv-x="976" d="M10.347 989.654c13.274 13.275 34.797 13.275 48.071 0l429.594-429.592 429.588 429.592c13.278 13.275 34.796 13.275 48.074 0 13.273-13.275 13.273-34.797 0-48.071l-429.592-429.593 429.592-429.592c13.273-13.273 13.273-34.796 0-48.069-13.278-13.273-34.796-13.273-48.074 0l-429.588 429.592-429.594-429.592c-13.274-13.273-34.797-13.273-48.071 0s-13.275 34.796 0 48.069l429.592 429.592-429.592 429.593c-13.275 13.274-13.275 34.796 0 48.071z" />
<glyph unicode="&#xe92c;" glyph-name="youtube" horiz-adv-x="981" d="M391.837 377.149v292.624c97.716-48.881 173.394-96.103 262.899-147.012-73.821-43.525-165.183-92.361-262.899-145.612zM936.399 815.31c-16.854 23.609-45.583 41.987-76.166 48.070-89.898 18.149-650.73 18.2-740.579 0-24.527-4.888-46.366-16.703-65.128-35.060-79.051-78.003-54.28-496.307-35.226-564.067 8.013-29.329 18.371-50.481 31.415-64.365 16.806-18.356 39.818-30.996 66.25-36.663 74.019-16.277 455.348-25.377 741.701-2.445 26.384 4.889 49.735 17.936 68.154 37.071 73.091 77.693 68.109 519.487 9.577 617.459z" />
<glyph unicode="&#xe92d;" glyph-name="vote-down-fill" horiz-adv-x="1626" d="M1601.867 924.676c33.352 39.102 5.566 99.324-45.827 99.324h-1485.728c-51.394 0-79.181-60.223-45.829-99.325l742.867-870.945c24.046-28.196 67.608-28.196 91.654 0l742.864 870.946z" />
<glyph unicode="&#xe92e;" glyph-name="instagram" horiz-adv-x="976" d="M324.808 512.589c0 89.121 72.443 161.43 161.835 161.43s161.838-72.31 161.838-161.43c0-89.169-72.446-161.5-161.838-161.5s-161.835 72.33-161.835 161.5zM286.449 993.992c474.147 21.844 544.459-18.743 604.23-78.367 75.36-75.269 98.325-169.232 78.562-602.729-2.281-51.586-10.537-86.805-22.529-117.612-67.591-173.059-227.872-183.712-660.263-164.144-51.712 2.376-86.964 10.507-117.846 22.518-66.182 25.622-116.485 76.046-142.025 141.627-37.874 97.212-24.813 467.887-22.579 516.953 3.593 78.611 22.773 147.735 78.564 203.388 55.596 55.362 124.449 74.783 203.886 78.367zM237.31 512.589c0-137.363 111.629-248.73 249.334-248.73s249.336 111.366 249.336 248.73c0 137.363-111.631 248.659-249.336 248.659s-249.334-111.296-249.334-248.659zM486.644 674.018c89.392 0 161.838-72.31 161.838-161.43 0-89.169-72.446-161.5-161.838-161.5s-161.835 72.33-161.835 161.5c0 89.121 72.443 161.43 161.835 161.43zM745.837 712.998c32.191 0 58.314 26.074 58.314 58.139s-26.122 58.114-58.314 58.114c-32.195 0-58.267-26.050-58.267-58.114s26.074-58.139 58.267-58.139z" />
<glyph unicode="&#xe92f;" glyph-name="twitter" horiz-adv-x="984" d="M309.47 118.408c371.302 0 574.394 302.894 574.394 565.528 0 8.622 0 17.18-0.591 25.704 39.507 28.095 73.601 62.978 100.71 102.891-36.8-16.082-75.914-26.628-115.912-31.278 42.114 24.85 73.651 63.889 88.754 109.954-39.654-23.154-82.998-39.495-128.212-48.262-76.455 80.021-204.322 83.898-285.647 8.624-52.397-48.535-74.684-120.902-58.399-189.927-162.306 8.041-313.544 83.508-416.073 207.656-53.577-90.822-26.173-206.967 62.531-265.287-32.127 0.92-63.564 9.436-91.657 24.84v-2.522c0.049-94.601 67.796-176.060 161.962-194.804-29.716-7.993-60.908-9.151-91.116-3.387 26.42-80.991 102.235-136.463 188.579-138.061-71.486-55.317-159.797-85.355-250.716-85.256-16.039 0.047-32.077 0.97-48.067 2.859 92.346-58.32 199.746-89.271 309.459-89.126z" />
<glyph unicode="&#xe930;" glyph-name="dots" horiz-adv-x="980" d="M0.008 512.001c0 55.006 44.591 99.597 99.597 99.597s99.597-44.591 99.597-99.597c0-55.006-44.592-99.597-99.597-99.597s-99.597 44.591-99.597 99.597zM398.405 512.001c0 55.006 44.592 99.597 99.597 99.597s99.597-44.591 99.597-99.597c0-55.006-44.591-99.597-99.597-99.597s-99.597 44.591-99.597 99.597zM796.791 512.001c0 55.006 44.588 99.597 99.597 99.597 55.003 0 99.597-44.591 99.597-99.597s-44.595-99.597-99.597-99.597c-55.009 0-99.597 44.591-99.597 99.597z" />
<glyph unicode="&#xe931;" glyph-name="Previous" horiz-adv-x="1045" d="M405.425 971.632c22.168-22.168 22.168-58.111 0-80.279l-186.923-186.923h487.381c188.106 0 340.594-152.492 340.594-340.593 0-188.106-152.489-340.594-340.594-340.594h-397.362c-31.352 0-56.766 25.413-56.766 56.764s25.415 56.764 56.766 56.764h397.362c125.403 0 227.062 101.658 227.062 227.066 0 125.403-101.658 227.062-227.062 227.062h-487.381l186.923-186.922c22.168-22.168 22.168-58.114 0-80.282s-58.111-22.168-80.279 0l-323.968 323.971 323.968 323.968c22.168 22.167 58.111 22.167 80.279 0z" />
<glyph unicode="&#xe932;" glyph-name="star-filled" d="M669.212 660.87c-12.531 0-23.622 8.11-27.422 20.051l-102.372 321.737c-8.504 26.734-46.334 26.734-54.838 0l-102.372-321.737c-3.8-11.941-14.891-20.051-27.422-20.051h-325.951c-27.538 0-39.347-34.966-17.44-51.658l263.95-201.157c9.673-7.37 13.665-20.025 9.978-31.615l-107.394-337.524c-8.526-26.798 22.494-48.658 44.861-31.609l271.766 207.107c10.302 7.85 24.58 7.85 34.881 0l271.763-207.107c22.366-17.048 53.39 4.814 44.861 31.609l-107.394 337.524c-3.687 11.587 0.31 24.241 9.978 31.615l263.952 201.157c21.904 16.694 10.101 51.658-17.442 51.658h-325.948z" />
<glyph unicode="&#xe933;" glyph-name="vote-down-stroke" horiz-adv-x="1593" d="M1371.563 910.222h-1185.534l592.769-711.322 592.765 711.322zM1493.020 1024c48.236 0 74.581-56.255 43.708-93.309l-714.229-857.072c-22.744-27.295-64.666-27.295-87.41 0l-714.224 857.072c-30.878 37.053-4.529 93.308 43.703 93.308h1428.452z" />
<glyph unicode="&#xe934;" glyph-name="lock" horiz-adv-x="702" d="M125.104 774.604c0 127.307 103.203 230.511 230.511 230.511s230.511-103.203 230.511-230.511v-200.982c56.218-8.546 99.296-57.089 99.296-115.694v-335.846c0-64.635-52.394-117.029-117.029-117.029h-425.557c-64.633 0-117.029 52.394-117.029 117.029v335.846c0 64.632 52.395 117.029 117.029 117.029h379.457v199.648c0 92.053-74.623 166.677-166.678 166.677-92.053 0-166.677-74.624-166.677-166.677v-54.442c0-17.627-14.29-31.917-31.917-31.917s-31.917 14.289-31.917 31.917v54.442zM142.836 511.122c-29.379 0-53.195-23.818-53.195-53.195v-335.846c0-29.38 23.816-53.195 53.195-53.195h425.557c29.38 0 53.195 23.815 53.195 53.195v335.846c0 29.377-23.815 53.195-53.195 53.195h-425.557zM355.615 372.528c-17.627 0-31.917-14.289-31.917-31.917v-101.215c0-17.627 14.289-31.917 31.917-31.917s31.917 14.289 31.917 31.917v101.215c0 17.627-14.289 31.917-31.917 31.917z" />
<glyph unicode="&#xe935;" glyph-name="vote-up-stroke" horiz-adv-x="1455" d="M1286.802 120.007h-1118.443l559.22 750.261 559.223-750.261zM1401.387 0c45.503 0 70.36 59.333 41.229 98.417l-673.808 903.993c-21.455 28.787-61.003 28.787-82.459 0l-673.807-903.993c-29.13-39.084-4.273-98.417 41.23-98.417h1347.615z" />
<glyph unicode="&#xe936;" glyph-name="vote-up-fill" horiz-adv-x="1593" d="M20.868 114.478c-30.878-37.057-4.529-93.309 43.703-93.309h1428.455c48.23 0 74.581 56.252 43.702 93.309l-714.229 857.070c-22.744 27.293-64.66 27.293-87.404 0l-714.227-857.070z" />
<glyph unicode="&#xe96b;" glyph-name="bubble" d="M512 960c282.77 0 512-186.25 512-416 0-229.752-229.23-416-512-416-27.156 0-53.81 1.734-79.824 5.044-109.978-109.978-241.25-129.7-368.176-132.596v26.916c68.536 33.578 128 94.74 128 164.636 0 9.754-0.758 19.33-2.164 28.696-115.796 76.264-189.836 192.754-189.836 323.304 0 229.75 229.23 416 512 416z" />
<glyph unicode="&#xe994;" glyph-name="cog" d="M933.79 413.75c-53.726 93.054-21.416 212.304 72.152 266.488l-100.626 174.292c-28.75-16.854-62.176-26.518-97.846-26.518-107.536 0-194.708 87.746-194.708 195.99h-201.258c0.266-33.41-8.074-67.282-25.958-98.252-53.724-93.056-173.156-124.702-266.862-70.758l-100.624-174.292c28.97-16.472 54.050-40.588 71.886-71.478 53.638-92.908 21.512-211.92-71.708-266.224l100.626-174.292c28.65 16.696 61.916 26.254 97.4 26.254 107.196 0 194.144-87.192 194.7-194.958h201.254c-0.086 33.074 8.272 66.57 25.966 97.218 53.636 92.906 172.776 124.594 266.414 71.012l100.626 174.29c-28.78 16.466-53.692 40.498-71.434 71.228zM512 304.668c-114.508 0-207.336 92.824-207.336 207.334 0 114.508 92.826 207.334 207.336 207.334 114.508 0 207.332-92.826 207.332-207.334-0.002-114.51-92.824-207.334-207.332-207.334z" />
</font>
</defs>
</svg>
