<svg width="39" height="33" viewBox="0 0 39 33" fill="none" xmlns="http://www.w3.org/2000/svg">
<path d="M19.559 31.7298V6.27709C19.559 6.27709 16.4852 3.16281 13.2845 1.8516C9.62506 0.352427 5.23116 0.716763 4.93439 0.743486C4.92474 0.744355 4.91849 0.752347 4.91849 0.762037V4.76991V26.1977C4.91849 26.1977 5.75948 26.1245 7.01 26.1558C7.3778 26.165 7.78103 26.1832 8.2087 26.215C9.75405 26.3299 11.6186 26.6219 13.2845 27.3044C13.9562 27.5795 14.6098 27.9212 15.2258 28.292C15.6024 28.5187 15.9649 28.7562 16.3088 28.9959C18.2198 30.3279 19.559 31.7298 19.559 31.7298Z" fill="#8DB4FF"/>
<path d="M19.559 6.27709V31.7298C19.559 31.7298 22.4706 28.6808 25.8335 27.3033C29.528 25.7899 34.1995 26.1966 34.1995 26.1966V4.76883V0.760956C34.1995 0.751267 34.1933 0.743275 34.1836 0.742406C33.8869 0.715682 29.493 0.351346 25.8335 1.85052C22.6328 3.16173 19.559 6.27709 19.559 6.27709Z" fill="#97BBFF"/>
<path fill-rule="evenodd" clip-rule="evenodd" d="M0.735474 31.7309V5.18814C0.735474 5.17865 0.741386 5.17079 0.750807 5.16962C0.934176 5.14702 2.73906 4.92741 4.91849 4.76991V26.1977L5.28068 27.0979C5.28372 27.1054 5.29115 27.1102 5.29928 27.1097C5.38441 27.1051 5.88013 27.0822 7.01 27.1105C7.3778 27.1197 7.78103 27.1379 8.2087 27.1698C9.75405 27.2847 11.6186 27.5767 13.2845 28.2591C13.9562 28.5342 14.6098 28.876 15.2258 29.2468C15.6024 29.4734 15.9649 29.7109 16.3088 29.9506C17.0185 30.4453 17.6494 30.9497 18.1621 31.3883C16.5848 31.0535 13.7657 30.593 10.1904 30.593C4.57249 30.593 0.735474 31.7309 0.735474 31.7309Z" fill="#A2C2FF"/>
<path fill-rule="evenodd" clip-rule="evenodd" d="M38.3672 5.16854C38.3766 5.16971 38.3825 5.17757 38.3825 5.18706V31.7298C38.3825 31.7298 34.5455 30.5919 28.9276 30.5919C25.3522 30.5919 22.533 31.0528 20.9558 31.388C22.1234 30.3888 23.9042 29.0483 25.8335 28.258C29.4212 26.7883 33.5155 26.9322 33.7491 26.9418C33.7561 26.942 33.7618 26.9384 33.7653 26.9324L34.1995 26.1966V4.76883C36.379 4.92633 38.1838 5.14594 38.3672 5.16854Z" fill="#A2C2FF"/>
<path d="M7.01 26.1558C5.75948 26.1245 4.91849 26.1977 4.91849 26.1977L5.28068 27.0979C5.28372 27.1054 5.29115 27.1102 5.29928 27.1097C5.38441 27.1051 5.88013 27.0822 7.01 27.1105C7.3778 27.1197 7.78103 27.1379 8.2087 27.1698C9.75405 27.2847 11.6186 27.5767 13.2845 28.2591C13.9562 28.5342 14.6098 28.876 15.2258 29.2468C15.6024 29.4734 15.9649 29.7109 16.3088 29.9506C17.0185 30.4453 17.6494 30.9497 18.1621 31.3883C19.0632 31.5796 19.559 31.7298 19.559 31.7298C19.559 31.7298 18.2198 30.3279 16.3088 28.9959C15.9649 28.7562 15.6024 28.5187 15.2258 28.292C14.6098 27.9212 13.9562 27.5795 13.2845 27.3044C11.6186 26.6219 9.75405 26.3299 8.2087 26.215C7.78103 26.1832 7.3778 26.165 7.01 26.1558Z" fill="#8CB3FF"/>
<path d="M18.1621 31.3883C19.0298 32.1306 19.559 32.6846 19.559 32.6846V31.7298C19.559 31.7298 19.0632 31.5796 18.1621 31.3883Z" fill="#8CB3FF"/>
<path d="M20.9558 31.388C20.0547 31.5794 19.559 31.7298 19.559 31.7298V32.6846C19.559 32.6846 20.0881 32.1305 20.9558 31.388Z" fill="#92B7FF"/>
<path d="M34.1995 26.1966C34.1995 26.1966 29.528 25.7899 25.8335 27.3033C22.4706 28.6808 19.559 31.7298 19.559 31.7298C19.559 31.7298 20.0547 31.5794 20.9558 31.388C22.1234 30.3888 23.9042 29.0483 25.8335 28.258C29.4212 26.7883 33.5155 26.9322 33.7491 26.9418C33.7561 26.942 33.7618 26.9384 33.7653 26.9324L34.1995 26.1966Z" fill="#92B7FF"/>
<path d="M10.1904 30.593C4.57249 30.593 0.735474 31.7309 0.735474 31.7309L1.19993 32.6566C1.20413 32.6649 1.21233 32.6694 1.22124 32.6666C1.46147 32.5889 4.78207 31.5477 10.1904 31.5477C15.8083 31.5477 19.559 32.6846 19.559 32.6846C19.559 32.6846 19.0298 32.1306 18.1621 31.3883C16.5848 31.0535 13.7657 30.593 10.1904 30.593Z" fill="#86B0FF"/>
<path d="M38.3825 31.7298C38.3825 31.7298 34.5455 30.5919 28.9276 30.5919C25.3522 30.5919 22.533 31.0528 20.9558 31.388C20.0881 32.1305 19.559 32.6846 19.559 32.6846C19.559 32.6846 23.3098 31.5466 28.9276 31.5466C34.3303 31.5466 37.7372 32.599 37.9904 32.6797C37.9999 32.6827 38.0084 32.6773 38.012 32.6681L38.3825 31.7298Z" fill="#86B0FF"/>
</svg>
