<svg width="57" height="22" viewBox="0 0 57 22" fill="none" xmlns="http://www.w3.org/2000/svg">
<path d="M8.24252 22H50.9347C54.1842 22 56.7253 19.1977 56.4084 15.9636C56.1978 13.815 54.7495 11.9883 52.7056 11.2931L50.2881 10.4709C48.5503 9.87991 47.0219 8.79611 45.8893 7.35163L44.9187 6.11375C41.9183 2.28706 37.2246 0.184952 32.3717 0.494413L28.9934 0.70984C26.4357 0.87294 23.9289 1.49893 21.5947 2.55736L18.9319 3.76488C17.4403 4.44123 15.8776 4.94788 14.2729 5.27532L6.70938 6.81872C4.16247 7.33844 2.05227 9.11307 1.10349 11.5331C-0.868362 16.5628 2.84014 22 8.24252 22Z" fill="white"/>
</svg>
