<svg width="20" height="18" viewBox="0 0 20 18" fill="none" xmlns="http://www.w3.org/2000/svg">
<path d="M3.87097 1.86207C4.6842 2.26413 5.63838 2.26413 6.45161 1.86207C6.45161 1.86207 6.45161 0 5.16129 0C3.87097 0 3.87097 1.86207 3.87097 1.86207Z" fill="#FFB4B4"/>
<path d="M13.5484 1.86207C14.3616 2.26413 15.3158 2.26413 16.129 1.86207C16.129 1.86207 16.129 0 14.8387 0C13.5484 0 13.5484 1.86207 13.5484 1.86207Z" fill="#FFB4B4"/>
<path fill-rule="evenodd" clip-rule="evenodd" d="M3 1.86207C1.34315 1.86207 0 3.20521 0 4.86207V15C0 16.6569 1.34315 18 3 18H17C18.6569 18 20 16.6569 20 15V4.86207C20 3.20521 18.6569 1.86207 17 1.86207H16.129C16.129 1.86207 16.129 3.72414 14.8387 3.72414C13.5484 3.72414 13.5484 1.86207 13.5484 1.86207H6.45161C6.45161 1.86207 6.45161 3.72414 5.16129 3.72414C3.87097 3.72414 3.87097 1.86207 3.87097 1.86207H3ZM2.93548 16.1379C2.3832 16.1379 1.93548 15.6902 1.93548 15.1379V8.44828C1.93548 7.89599 2.3832 7.44828 2.93548 7.44828H17.0645C17.6168 7.44828 18.0645 7.89599 18.0645 8.44827V15.1379C18.0645 15.6902 17.6168 16.1379 17.0645 16.1379H2.93548Z" fill="#FFB4B4"/>
</svg>
