<svg width="63" height="62" viewBox="0 0 63 62" fill="none" xmlns="http://www.w3.org/2000/svg">
  <path d="M62.9728 30.6812C62.9728 13.8889 48.9311 0.279297 31.6058 0.279297C14.2804 0.279297 0.23877 13.8889 0.23877 30.6812C0.23877 45.8583 11.7073 58.4347 26.7047 60.7149C26.7047 52.4179 26.7047 39.4692 26.7047 39.4692H18.7404V30.6812H26.7047V23.9832C26.7047 16.365 31.3852 12.155 38.5531 12.155C41.9838 12.155 45.5739 12.7488 45.5739 12.7488V20.2305H41.6163C37.7199 20.2305 36.5069 22.576 36.5069 24.9808V30.6812H45.2063L43.8156 39.4692H36.5069C36.5069 39.4692 36.5069 52.4179 36.5069 60.7149C51.5042 58.4347 62.9728 45.8583 62.9728 30.6812Z" fill="white"/>
</svg>
