<svg width="32" height="32" viewBox="0 0 32 32" fill="none" xmlns="http://www.w3.org/2000/svg">
<path fill-rule="evenodd" clip-rule="evenodd" d="M19.4289 2.28566C19.1258 2.28566 18.8351 2.16526 18.6208 1.95094C18.4064 1.73661 18.286 1.44593 18.286 1.14283C18.286 0.839734 18.4064 0.54905 18.6208 0.334727C18.8351 0.120405 19.1258 0 19.4289 0H30.8572C31.1603 0 31.451 0.120405 31.6653 0.334727C31.8796 0.54905 32 0.839734 32 1.14283V12.5711C32 12.8742 31.8796 13.1649 31.6653 13.3792C31.451 13.5936 31.1603 13.714 30.8572 13.714C30.5541 13.714 30.2634 13.5936 30.0491 13.3792C29.8347 13.1649 29.7143 12.8742 29.7143 12.5711V3.90163L20.2768 13.3391C22.1324 15.6092 23.0444 18.5056 22.8244 21.4293C22.6044 24.353 21.2691 27.0803 19.0947 29.0471C16.9204 31.0139 14.0732 32.0698 11.1422 31.9964C8.21118 31.923 5.42048 30.7259 3.34728 28.6527C1.27408 26.5795 0.0769883 23.7888 0.00358579 20.8578C-0.0698167 17.9268 0.986086 15.0797 2.95291 12.9053C4.91973 10.7309 7.64702 9.39562 10.5707 9.1756C13.4944 8.95558 16.3908 9.86764 18.6609 11.7232L28.0984 2.28566H19.4289ZM11.429 11.4283C9.00426 11.4283 6.67879 12.3916 4.96421 14.1061C3.24963 15.8207 2.28639 18.1462 2.28639 20.571C2.28639 22.9957 3.24963 25.3212 4.96421 27.0358C6.67879 28.7504 9.00426 29.7136 11.429 29.7136C13.8538 29.7136 16.1793 28.7504 17.8939 27.0358C19.6085 25.3212 20.5717 22.9957 20.5717 20.571C20.5717 18.1462 19.6085 15.8207 17.8939 14.1061C16.1793 12.3916 13.8538 11.4283 11.429 11.4283Z" fill="#099EE3"/>
</svg>
