<svg width="279" height="57" viewBox="0 0 279 57" fill="none" xmlns="http://www.w3.org/2000/svg">
<path d="M7.40142 10.2829C0.573239 13.3023 -0.792398 22.3605 3.30451 28.3993C7.40142 34.4381 19.6922 46.5157 19.6922 46.5157C19.6922 46.5157 21.0141 45.2246 22.8495 43.3562C25.0305 45.661 26.9423 47.5393 26.9423 47.5393C26.9423 47.5393 34.163 40.4778 36.5643 36.9383C38.4797 34.115 38.8673 30.1658 36.9147 27.785L36.8427 27.1275C40.3534 21.1236 39.8436 13.155 33.3485 10.2829C26.5203 7.26347 21.0578 13.3023 19.6922 16.3217C18.3265 13.3023 14.2296 7.26347 7.40142 10.2829Z" fill="#FF6C6C"/>
<path d="M4.63076 21.061C4.63076 17.4864 6.0472 15.4419 8.37143 13.7582M3.30451 28.3993C-0.792398 22.3605 0.573239 13.3023 7.40142 10.2829C14.2296 7.26347 18.3265 13.3023 19.6922 16.3217C21.0578 13.3023 26.5203 7.26347 33.3485 10.2829C39.8436 13.155 40.3534 21.1236 36.8427 27.1275L36.9147 27.785C38.8673 30.1658 38.4797 34.115 36.5643 36.9383C34.163 40.4778 26.9423 47.5393 26.9423 47.5393C26.9423 47.5393 25.0305 45.661 22.8495 43.3562C21.0141 45.2246 19.6922 46.5157 19.6922 46.5157C19.6922 46.5157 7.40142 34.4381 3.30451 28.3993Z" stroke="url(#paint0_linear_2248_3)" stroke-width="2" stroke-linecap="round" stroke-linejoin="round"/>
<path d="M19.6052 32.6381C19.7075 31.0262 20.744 29.8911 21.7734 29.6145M17.6796 37.0678C15.3082 33.5771 16.0987 28.3411 20.0509 26.5958C24.0032 24.8505 26.3746 28.3411 27.165 30.0865C27.9555 28.3411 31.1173 24.8505 35.0695 26.5958C35.8693 26.949 36.5073 27.4451 36.9965 28.0408C38.9247 30.3888 38.5419 34.2835 36.6504 37.0678C34.2791 40.5584 27.165 47.5398 27.165 47.5398C27.165 47.5398 20.0509 40.5584 17.6796 37.0678Z" stroke="url(#paint1_linear_2248_3)" stroke-width="2" stroke-linecap="round" stroke-linejoin="round"/>
<path d="M72.5365 45L68.5465 34.668H56.0725L52.0405 45H49.5625L61.3645 14.928H63.5485L75.0565 45H72.5365ZM63.7585 21.648C63.6745 21.368 63.5485 20.99 63.3805 20.514C63.2125 20.038 63.0445 19.534 62.8765 19.002C62.7085 18.47 62.5405 17.994 62.3725 17.574C62.2325 18.05 62.0785 18.54 61.9105 19.044C61.7705 19.548 61.6165 20.024 61.4485 20.472C61.3085 20.92 61.1685 21.326 61.0285 21.69L56.9125 32.484H67.7905L63.7585 21.648ZM81.2052 45H78.8112V13.08H81.2052V45ZM101.887 30.468C101.747 29.992 101.607 29.53 101.467 29.082C101.355 28.634 101.243 28.214 101.131 27.822C101.019 27.402 100.907 26.996 100.795 26.604C100.683 26.212 100.585 25.848 100.501 25.512H100.375C100.291 25.848 100.193 26.212 100.081 26.604C99.997 26.996 99.899 27.416 99.787 27.864C99.675 28.284 99.549 28.718 99.409 29.166C99.297 29.586 99.171 30.034 99.031 30.51L94.285 45H91.765L85.465 22.656H87.943L91.723 36.474C91.947 37.314 92.143 38.084 92.311 38.784C92.479 39.456 92.633 40.086 92.773 40.674C92.913 41.234 93.011 41.752 93.067 42.228H93.193C93.277 41.892 93.361 41.528 93.445 41.136C93.557 40.716 93.669 40.282 93.781 39.834C93.893 39.386 94.019 38.91 94.159 38.406C94.327 37.874 94.495 37.342 94.663 36.81L99.283 22.656H101.761L106.171 36.768C106.395 37.44 106.591 38.112 106.759 38.784C106.955 39.428 107.123 40.044 107.263 40.632C107.431 41.192 107.557 41.724 107.641 42.228H107.767C107.823 41.752 107.907 41.234 108.019 40.674C108.159 40.086 108.313 39.442 108.481 38.742C108.677 38.042 108.887 37.286 109.111 36.474L112.765 22.656H115.201L109.111 45H106.465L101.887 30.468ZM127.354 22.278C129.874 22.278 131.75 22.894 132.982 24.126C134.214 25.358 134.83 27.318 134.83 30.006V45H133.024L132.604 41.22H132.478C131.946 42.06 131.33 42.802 130.63 43.446C129.958 44.062 129.132 44.552 128.152 44.916C127.2 45.252 126.024 45.42 124.624 45.42C123.224 45.42 122.006 45.182 120.97 44.706C119.934 44.202 119.136 43.488 118.576 42.564C118.016 41.64 117.736 40.506 117.736 39.162C117.736 36.95 118.646 35.27 120.466 34.122C122.286 32.946 124.932 32.274 128.404 32.106L132.478 31.938V30.342C132.478 28.13 132.03 26.576 131.134 25.68C130.266 24.756 128.964 24.294 127.228 24.294C126.08 24.294 124.974 24.448 123.91 24.756C122.874 25.036 121.824 25.442 120.76 25.974L120.004 24.084C121.04 23.552 122.188 23.118 123.448 22.782C124.708 22.446 126.01 22.278 127.354 22.278ZM128.656 33.87C125.828 34.01 123.714 34.514 122.314 35.382C120.914 36.222 120.214 37.496 120.214 39.204C120.214 40.576 120.648 41.626 121.516 42.354C122.384 43.054 123.56 43.404 125.044 43.404C127.424 43.404 129.244 42.746 130.504 41.43C131.792 40.114 132.45 38.266 132.478 35.886V33.702L128.656 33.87ZM138.279 22.656H140.841L146.133 36.558C146.441 37.37 146.721 38.126 146.973 38.826C147.225 39.526 147.449 40.184 147.645 40.8C147.841 41.388 148.009 41.934 148.149 42.438H148.275C148.471 41.794 148.737 40.968 149.073 39.96C149.409 38.924 149.801 37.804 150.249 36.6L155.457 22.656H158.019L147.939 48.99C147.435 50.278 146.875 51.384 146.259 52.308C145.643 53.232 144.915 53.932 144.075 54.408C143.235 54.912 142.227 55.164 141.051 55.164C140.519 55.164 140.029 55.122 139.581 55.038C139.161 54.982 138.755 54.898 138.363 54.786V52.77C138.727 52.854 139.091 52.924 139.455 52.98C139.847 53.064 140.281 53.106 140.757 53.106C141.541 53.106 142.227 52.938 142.815 52.602C143.403 52.294 143.921 51.804 144.369 51.132C144.817 50.488 145.223 49.676 145.587 48.696L147.057 44.916L138.279 22.656ZM175.691 39.078C175.691 40.422 175.355 41.57 174.683 42.522C174.011 43.474 173.031 44.202 171.743 44.706C170.455 45.182 168.887 45.42 167.039 45.42C165.499 45.42 164.127 45.28 162.923 45C161.719 44.72 160.697 44.384 159.857 43.992V41.682C160.865 42.186 161.999 42.606 163.259 42.942C164.519 43.25 165.793 43.404 167.081 43.404C169.321 43.404 170.931 43.04 171.911 42.312C172.891 41.556 173.381 40.534 173.381 39.246C173.381 38.406 173.143 37.72 172.667 37.188C172.219 36.628 171.533 36.138 170.609 35.718C169.713 35.27 168.593 34.822 167.249 34.374C165.877 33.898 164.659 33.422 163.595 32.946C162.531 32.442 161.705 31.812 161.117 31.056C160.529 30.3 160.235 29.264 160.235 27.948C160.235 26.156 160.963 24.756 162.419 23.748C163.875 22.74 165.821 22.236 168.257 22.236C169.601 22.236 170.847 22.362 171.995 22.614C173.171 22.866 174.235 23.202 175.187 23.622L174.347 25.596C173.787 25.344 173.157 25.12 172.457 24.924C171.757 24.7 171.043 24.532 170.315 24.42C169.587 24.308 168.859 24.252 168.131 24.252C166.367 24.252 164.995 24.56 164.015 25.176C163.035 25.792 162.545 26.688 162.545 27.864C162.545 28.76 162.769 29.474 163.217 30.006C163.693 30.51 164.379 30.944 165.275 31.308C166.199 31.672 167.305 32.092 168.593 32.568C169.909 33.016 171.099 33.492 172.163 33.996C173.255 34.5 174.109 35.144 174.725 35.928C175.369 36.712 175.691 37.762 175.691 39.078ZM204.829 29.712C204.829 33.072 204.227 35.886 203.023 38.154C201.847 40.422 200.097 42.13 197.773 43.278C195.477 44.426 192.621 45 189.205 45H181.813V15.012H190.129C193.293 15.012 195.967 15.572 198.151 16.692C200.335 17.812 201.987 19.464 203.107 21.648C204.255 23.832 204.829 26.52 204.829 29.712ZM202.309 29.796C202.309 26.968 201.847 24.63 200.923 22.782C199.999 20.906 198.599 19.506 196.723 18.582C194.847 17.63 192.495 17.154 189.667 17.154H184.249V42.858H189.037C193.489 42.858 196.807 41.78 198.991 39.624C201.203 37.44 202.309 34.164 202.309 29.796ZM219.065 22.278C221.585 22.278 223.461 22.894 224.693 24.126C225.925 25.358 226.541 27.318 226.541 30.006V45H224.735L224.315 41.22H224.189C223.657 42.06 223.041 42.802 222.341 43.446C221.669 44.062 220.843 44.552 219.863 44.916C218.911 45.252 217.735 45.42 216.335 45.42C214.935 45.42 213.717 45.182 212.681 44.706C211.645 44.202 210.847 43.488 210.287 42.564C209.727 41.64 209.447 40.506 209.447 39.162C209.447 36.95 210.357 35.27 212.177 34.122C213.997 32.946 216.643 32.274 220.115 32.106L224.189 31.938V30.342C224.189 28.13 223.741 26.576 222.845 25.68C221.977 24.756 220.675 24.294 218.939 24.294C217.791 24.294 216.685 24.448 215.621 24.756C214.585 25.036 213.535 25.442 212.471 25.974L211.715 24.084C212.751 23.552 213.899 23.118 215.159 22.782C216.419 22.446 217.721 22.278 219.065 22.278ZM220.367 33.87C217.539 34.01 215.425 34.514 214.025 35.382C212.625 36.222 211.925 37.496 211.925 39.204C211.925 40.576 212.359 41.626 213.227 42.354C214.095 43.054 215.271 43.404 216.755 43.404C219.135 43.404 220.955 42.746 222.215 41.43C223.503 40.114 224.161 38.266 224.189 35.886V33.702L220.367 33.87ZM239.986 43.404C240.602 43.404 241.19 43.362 241.75 43.278C242.31 43.166 242.8 43.04 243.22 42.9V44.832C242.8 45 242.268 45.14 241.624 45.252C241.008 45.364 240.35 45.42 239.65 45.42C238.418 45.42 237.368 45.196 236.5 44.748C235.632 44.272 234.96 43.544 234.484 42.564C234.036 41.584 233.812 40.324 233.812 38.784V24.588H230.536V23.244L233.812 22.488L234.694 17.322H236.206V22.656H243.094V24.588H236.206V38.7C236.206 40.24 236.514 41.416 237.13 42.228C237.746 43.012 238.698 43.404 239.986 43.404ZM256.402 22.236C258.334 22.236 259.93 22.684 261.19 23.58C262.478 24.448 263.444 25.652 264.088 27.192C264.76 28.732 265.096 30.51 265.096 32.526V34.122H249.136C249.136 37.118 249.822 39.4 251.194 40.968C252.594 42.536 254.568 43.32 257.116 43.32C258.516 43.32 259.734 43.208 260.77 42.984C261.806 42.76 262.94 42.368 264.172 41.808V43.992C263.052 44.496 261.946 44.86 260.854 45.084C259.762 45.308 258.488 45.42 257.032 45.42C254.82 45.42 252.93 44.958 251.362 44.034C249.822 43.11 248.646 41.794 247.834 40.086C247.05 38.35 246.658 36.334 246.658 34.038C246.658 31.742 247.036 29.712 247.792 27.948C248.548 26.184 249.654 24.798 251.11 23.79C252.566 22.754 254.33 22.236 256.402 22.236ZM256.402 24.252C254.33 24.252 252.664 24.938 251.404 26.31C250.144 27.654 249.402 29.6 249.178 32.148H262.618C262.618 30.58 262.394 29.208 261.946 28.032C261.498 26.856 260.812 25.932 259.888 25.26C258.992 24.588 257.83 24.252 256.402 24.252Z" fill="#FFC3C3"/>
<defs>
<linearGradient id="paint0_linear_2248_3" x1="11.6485" y1="5.89159" x2="31.8012" y2="51.3602" gradientUnits="userSpaceOnUse">
<stop offset="0.0094903" stop-color="#FFB1B1"/>
<stop offset="1" stop-color="#FFC6C6"/>
</linearGradient>
<linearGradient id="paint1_linear_2248_3" x1="22.9909" y1="22.2189" x2="33.4189" y2="53.4902" gradientUnits="userSpaceOnUse">
<stop stop-color="#FF9898"/>
<stop offset="1" stop-color="#FFD7D7"/>
</linearGradient>
</defs>
</svg>
