<svg width="159" height="282" viewBox="0 0 159 282" fill="none" xmlns="http://www.w3.org/2000/svg">
<path d="M146.472 114.978C147.915 112.258 149.197 109.439 150.307 106.534C153.518 98.1228 155.276 88.9966 155.276 79.4663C155.276 37.5509 121.297 3.57178 79.3818 3.57178C37.4664 3.57178 3.4873 37.5509 3.4873 79.4663C3.4873 88.9966 5.24525 98.1228 8.45703 106.534C9.5663 109.439 10.8488 112.258 12.2917 114.978V274.755C12.2917 277.392 14.9293 279.216 17.3971 278.284L78.1854 255.34C78.9565 255.049 79.8072 255.049 80.5782 255.34L141.367 278.284C143.834 279.216 146.472 277.392 146.472 274.755V114.978Z" fill="#D3D3D3" stroke="#CACACA" stroke-width="5.5" stroke-linecap="round"/>
</svg>
