<svg width="33" height="33" viewBox="0 0 33 33" fill="none" xmlns="http://www.w3.org/2000/svg">
<path d="M12.6793 12.6021H0.512451L16.5124 17.6431L12.6793 12.6021Z" fill="#FFDD66"/>
<path d="M16.5124 0.68457L12.6793 12.6021L16.5124 17.6431V0.68457Z" fill="#FFDB5D"/>
<path d="M20.3456 12.6021L16.5124 0.68457V17.6431L20.3456 12.6021Z" fill="#FFD951"/>
<path d="M32.5124 12.6021H20.3456L16.5124 17.6431L32.5124 12.6021Z" fill="#FFDD66"/>
<path d="M22.7201 19.9845L32.5124 12.6021L16.5124 17.6431L22.7201 19.9845Z" fill="#FFD234"/>
<path d="M26.6942 32.3405L22.7201 19.9845L16.5124 17.6431L26.6942 32.3405Z" fill="#FFDA55"/>
<path d="M16.5124 24.6644L26.6942 32.3405L16.5124 17.6431V24.6644Z" fill="#FFD53E"/>
<path d="M6.33062 32.3405L16.5124 24.6644V17.6431L6.33062 32.3405Z" fill="#FFD748"/>
<path d="M10.3048 19.9845L6.33062 32.3405L16.5124 17.6431L10.3048 19.9845Z" fill="#FFDA55"/>
<path d="M0.512451 12.6021L10.3048 19.9845L16.5124 17.6431L0.512451 12.6021Z" fill="#FFD541"/>
<path d="M16.5124 24.6644L6.33062 32.3405L7.06759 32.6613C7.10065 32.6757 7.13889 32.6712 7.16769 32.6495L16.5124 25.6081V24.6644Z" fill="#FFE070"/>
<path d="M26.6942 32.3405L16.5124 24.6644V25.6081L25.8571 32.6495C25.8859 32.6712 25.9241 32.6757 25.9572 32.6613L26.6942 32.3405Z" fill="#FFDD66"/>
<path d="M22.7201 19.9845L22.8875 20.5051C22.9088 20.5713 22.9895 20.5961 23.0443 20.5532L32.1443 13.4316C32.1576 13.4212 32.168 13.4076 32.1746 13.3921L32.5124 12.6021L22.7201 19.9845Z" fill="#FFE073"/>
<path d="M10.3048 19.9845L0.512451 12.6021L0.850134 13.3921C0.856756 13.4076 0.867186 13.4212 0.880456 13.4316L9.98054 20.5532C10.0353 20.5961 10.1161 20.5713 10.1374 20.5051L10.3048 19.9845Z" fill="#FFE073"/>
</svg>
