<svg width="21" height="33" viewBox="0 0 21 33" fill="none" xmlns="http://www.w3.org/2000/svg">
<path fill-rule="evenodd" clip-rule="evenodd" d="M10.5 2.49989C8.27218 2.49989 6.13561 3.34275 4.5603 4.84304C2.985 6.34334 2.1 8.37818 2.1 10.4999C2.1 12.6217 2.985 14.6565 4.5603 16.1568C6.13561 17.6571 8.27218 18.4999 10.5 18.4999C12.7278 18.4999 14.8644 17.6571 16.4397 16.1568C18.015 14.6565 18.9 12.6217 18.9 10.4999C18.9 8.37818 18.015 6.34334 16.4397 4.84304C14.8644 3.34275 12.7278 2.49989 10.5 2.49989ZM8.29513e-10 10.4999C2.55278e-05 8.56474 0.58962 6.67114 1.69728 5.04877C2.80493 3.4264 4.38307 2.14497 6.24027 1.35989C8.09748 0.574814 10.154 0.319814 12.1603 0.62582C14.1667 0.931827 16.0367 1.78569 17.5437 3.08386C19.0506 4.38203 20.1296 6.06872 20.6499 7.93938C21.1702 9.81004 21.1094 11.7843 20.4749 13.6227C19.8404 15.4611 18.6595 17.0847 17.0753 18.2965C15.4911 19.5084 13.5717 20.2564 11.55 20.45V24.5H15.75C16.0285 24.5 16.2955 24.6053 16.4925 24.7929C16.6894 24.9804 16.8 25.2348 16.8 25.5C16.8 25.7652 16.6894 26.0195 16.4925 26.2071C16.2955 26.3946 16.0285 26.5 15.75 26.5H11.55V31.5C11.55 31.7652 11.4394 32.0196 11.2425 32.2071C11.0455 32.3946 10.7785 32.5 10.5 32.5C10.2215 32.5 9.95445 32.3946 9.75754 32.2071C9.56062 32.0196 9.45 31.7652 9.45 31.5V26.5H5.25C4.97152 26.5 4.70445 26.3946 4.50754 26.2071C4.31062 26.0195 4.2 25.7652 4.2 25.5C4.2 25.2348 4.31062 24.9804 4.50754 24.7929C4.70445 24.6053 4.97152 24.5 5.25 24.5H9.45V20.45C6.86004 20.202 4.45909 19.0468 2.71295 17.2082C0.966807 15.3697 -3.27005e-05 12.979 8.29513e-10 10.4999Z" fill="#E67FB0"/>
</svg>
