<svg width="169" height="300" viewBox="0 0 169 300" fill="none" xmlns="http://www.w3.org/2000/svg">
<path d="M156.238 123.105C157.796 120.173 159.179 117.135 160.375 114.003C163.82 104.982 165.705 95.1938 165.705 84.9718C165.705 40.0158 129.261 3.57178 84.3053 3.57178C39.3493 3.57178 2.90527 40.0158 2.90527 84.9718C2.90527 95.1938 4.79079 104.982 8.23545 114.003C9.43134 117.135 10.8149 120.173 12.3724 123.105V292.701C12.3724 295.393 15.0638 297.253 17.5819 296.303L16.6108 293.73L17.582 296.303L82.9457 271.632C83.8219 271.301 84.7886 271.301 85.6648 271.632L151.029 296.303L152 293.73L151.029 296.303C153.547 297.253 156.238 295.393 156.238 292.701V123.105Z" fill="#FFD950" stroke="#FFCE50" stroke-width="5.5" stroke-linecap="round"/>
</svg>
