<svg width="158" height="282" viewBox="0 0 158 282" fill="none" xmlns="http://www.w3.org/2000/svg">
<path d="M146.319 114.978C147.762 112.258 149.044 109.439 150.153 106.534C153.365 98.1228 155.123 88.9966 155.123 79.4663C155.123 37.5509 121.144 3.57178 79.2285 3.57178C37.3131 3.57178 3.33398 37.5509 3.33398 79.4663C3.33398 88.9966 5.09193 98.1228 8.30371 106.534C9.41298 109.439 10.6955 112.258 12.1384 114.978V274.755C12.1384 277.392 14.776 279.216 17.2438 278.284L78.0321 255.34C78.8031 255.049 79.6538 255.049 80.4249 255.34L141.213 278.284C143.681 279.216 146.319 277.392 146.319 274.755V114.978Z" fill="#FBA957" stroke="#F89E46" stroke-width="5.5" stroke-linecap="round"/>
</svg>
